<?xml version="1.0" standalone="no"?>
<!DOCTYPE svg PUBLIC "-//W3C//DTD SVG 1.1//EN"
"http://www.w3.org/Graphics/SVG/1.1/DTD/svg11.dtd">

<svg width="1180" height="702" view_box="0 0 1180 702"
xmlns="http://www.w3.org/2000/svg"
xmlns:link="http://www.w3.org/1999/xlink">\n\n<desc>Généré par Mocodo 2.3.7 le Mon, 03 Apr 2017 19:46:03</desc>

<rect id="frame" x="0" y="0" width="1180" height="702" fill="none" stroke="none" stroke-width="0"/>

<!-- Association ASSOCIER -->
<line x1="883" y1="53" x2="668" y2="53" stroke="#726f83" stroke-width="1"/>
<text x="778" y="69.0" fill="#726f83" font-family="Courier New" font-size="12">1,1</text>
<line x1="478" y1="53" x2="668" y2="53" stroke="#726f83" stroke-width="1"/>
<text x="556" y="69.0" fill="#726f83" font-family="Courier New" font-size="12">0,N</text>
<path d="M 551.0 53.0 L 563.0 47.0 L 559.0 53.0 L 563.0 59.0 Z" fill="#726f83" stroke-width="0"/>
<g id="association-ASSOCIER">
	<path d="M 695 27 a 14 14 90 0 1 14 14 V 53 h -82 V 41 a 14 14 90 0 1 14 -14" fill="#b2bba4" stroke="#b2bba4" stroke-width="0"/>
	<path d="M 709 53.0 v 12 a 14 14 90 0 1 -14 14 H 641 a 14 14 90 0 1 -14 -14 V 53.0 H 82" fill="#ccd6ba" stroke="#ccd6ba" stroke-width="0"/>
	<rect x="627" y="27" width="82" height="52" fill="none" rx="14" stroke="#85956b" stroke-width="1.5"/>
	<line x1="627" y1="53" x2="709" y2="53" stroke="#85956b" stroke-width="1"/>
	<text x="634" y="45.6" fill="#27360c" font-family="Courier New" font-size="14">ASSOCIER</text>
</g>

<!-- Association AVOIR_TYPE_QUESTION -->
<line x1="478" y1="53" x2="284" y2="53" stroke="#726f83" stroke-width="1"/>
<text x="377" y="69.0" fill="#726f83" font-family="Courier New" font-size="12">1,1</text>
<line x1="86" y1="53" x2="284" y2="53" stroke="#726f83" stroke-width="1"/>
<text x="168" y="69.0" fill="#726f83" font-family="Courier New" font-size="12">1,N</text>
<path d="M 163.0 53.0 L 175.0 47.0 L 171.0 53.0 L 175.0 59.0 Z" fill="#726f83" stroke-width="0"/>
<g id="association-AVOIR_TYPE_QUESTION">
	<path d="M 358 27 a 14 14 90 0 1 14 14 V 53 h -176 V 41 a 14 14 90 0 1 14 -14" fill="#b2bba4" stroke="#b2bba4" stroke-width="0"/>
	<path d="M 372 53.0 v 12 a 14 14 90 0 1 -14 14 H 210 a 14 14 90 0 1 -14 -14 V 53.0 H 176" fill="#ccd6ba" stroke="#ccd6ba" stroke-width="0"/>
	<rect x="196" y="27" width="176" height="52" fill="none" rx="14" stroke="#85956b" stroke-width="1.5"/>
	<line x1="196" y1="53" x2="372" y2="53" stroke="#85956b" stroke-width="1"/>
	<text x="203" y="45.6" fill="#27360c" font-family="Courier New" font-size="14">AVOIR_TYPE_QUESTION</text>
</g>

<!-- Association REMPLIR -->
<line x1="478" y1="537" x2="478" y2="398" stroke="#726f83" stroke-width="1"/>
<text x="483.0" y="458" fill="#726f83" font-family="Courier New" font-size="12">0,N</text>
<line x1="478" y1="259" x2="478" y2="398" stroke="#726f83" stroke-width="1"/>
<text x="483.0" y="337" fill="#726f83" font-family="Courier New" font-size="12">0,N</text>
<g id="association-REMPLIR">
	<path d="M 531 363 a 14 14 90 0 1 14 14 V 389 h -134 V 377 a 14 14 90 0 1 14 -14" fill="#b2bba4" stroke="#b2bba4" stroke-width="0"/>
	<path d="M 545 389.0 v 30 a 14 14 90 0 1 -14 14 H 425 a 14 14 90 0 1 -14 -14 V 389.0 H 134" fill="#ccd6ba" stroke="#ccd6ba" stroke-width="0"/>
	<rect x="411" y="363" width="134" height="70" fill="none" rx="14" stroke="#85956b" stroke-width="1.5"/>
	<line x1="411" y1="389" x2="545" y2="389" stroke="#85956b" stroke-width="1"/>
	<text x="448" y="381.6" fill="#27360c" font-family="Courier New" font-size="14">REMPLIR</text>
	<text x="418" y="407.6" fill="#607734" font-family="Courier New" font-size="14">id_utilisateur</text>
	<text x="418" y="425.6" fill="#607734" font-family="Courier New" font-size="14">date</text>
</g>

<!-- Association ENTREPRISE_AVOIR_ADRESSE -->
<line x1="668" y1="398" x2="883" y2="398" stroke="#726f83" stroke-width="1"/>
<text x="746" y="414.0" fill="#726f83" font-family="Courier New" font-size="12">1,1</text>
<line x1="883" y1="537" x2="883" y2="398" stroke="#726f83" stroke-width="1"/>
<text x="888.0" y="440" fill="#726f83" font-family="Courier New" font-size="12">1,1</text>
<g id="association-ENTREPRISE_AVOIR_ADRESSE">
	<path d="M 978 372 a 14 14 90 0 1 14 14 V 398 h -218 V 386 a 14 14 90 0 1 14 -14" fill="#b2bba4" stroke="#b2bba4" stroke-width="0"/>
	<path d="M 992 398.0 v 12 a 14 14 90 0 1 -14 14 H 788 a 14 14 90 0 1 -14 -14 V 398.0 H 218" fill="#ccd6ba" stroke="#ccd6ba" stroke-width="0"/>
	<rect x="774" y="372" width="218" height="52" fill="none" rx="14" stroke="#85956b" stroke-width="1.5"/>
	<line x1="774" y1="398" x2="992" y2="398" stroke="#85956b" stroke-width="1"/>
	<text x="781" y="390.6" fill="#27360c" font-family="Courier New" font-size="14">ENTREPRISE_AVOIR_ADRESSE</text>
</g>

<!-- Association ACHETER -->
<line x1="478" y1="259" x2="668" y2="259" stroke="#726f83" stroke-width="1"/>
<text x="598" y="275.0" fill="#726f83" font-family="Courier New" font-size="12">1,1</text>
<line x1="668" y1="398" x2="668" y2="259" stroke="#726f83" stroke-width="1"/>
<text x="673.0" y="337" fill="#726f83" font-family="Courier New" font-size="12">1,N</text>
<path d="M 668.0 345.0 L 662.0 333.0 L 668.0 337.0 L 674.0 333.0 Z" fill="#726f83" stroke-width="0"/>
<g id="association-ACHETER">
	<path d="M 691 233 a 14 14 90 0 1 14 14 V 259 h -74 V 247 a 14 14 90 0 1 14 -14" fill="#b2bba4" stroke="#b2bba4" stroke-width="0"/>
	<path d="M 705 259.0 v 12 a 14 14 90 0 1 -14 14 H 645 a 14 14 90 0 1 -14 -14 V 259.0 H 74" fill="#ccd6ba" stroke="#ccd6ba" stroke-width="0"/>
	<rect x="631" y="233" width="74" height="52" fill="none" rx="14" stroke="#85956b" stroke-width="1.5"/>
	<line x1="631" y1="259" x2="705" y2="259" stroke="#85956b" stroke-width="1"/>
	<text x="638" y="251.6" fill="#27360c" font-family="Courier New" font-size="14">ACHETER</text>
</g>

<!-- Association CONSTITUER -->
<line x1="478" y1="53" x2="478" y2="147" stroke="#726f83" stroke-width="1"/>
<text x="483.0" y="113" fill="#726f83" font-family="Courier New" font-size="12">1,1</text>
<line x1="478" y1="259" x2="478" y2="147" stroke="#726f83" stroke-width="1"/>
<text x="483.0" y="189" fill="#726f83" font-family="Courier New" font-size="12">1,N</text>
<path d="M 478.0 197.0 L 472.0 185.0 L 478.0 189.0 L 484.0 185.0 Z" fill="#726f83" stroke-width="0"/>
<g id="association-CONSTITUER">
	<path d="M 514 121 a 14 14 90 0 1 14 14 V 147 h -100 V 135 a 14 14 90 0 1 14 -14" fill="#b2bba4" stroke="#b2bba4" stroke-width="0"/>
	<path d="M 528 147.0 v 12 a 14 14 90 0 1 -14 14 H 442 a 14 14 90 0 1 -14 -14 V 147.0 H 100" fill="#ccd6ba" stroke="#ccd6ba" stroke-width="0"/>
	<rect x="428" y="121" width="100" height="52" fill="none" rx="14" stroke="#85956b" stroke-width="1.5"/>
	<line x1="428" y1="147" x2="528" y2="147" stroke="#85956b" stroke-width="1"/>
	<text x="435" y="139.6" fill="#27360c" font-family="Courier New" font-size="14">CONSTITUER</text>
</g>

<!-- Association FAIRE_PARTIE -->
<line x1="478" y1="537" x2="478" y2="658" stroke="#726f83" stroke-width="1"/>
<text x="483.0" y="624" fill="#726f83" font-family="Courier New" font-size="12">1,1</text>
<line x1="668" y1="658" x2="478" y2="658" stroke="#726f83" stroke-width="1"/>
<text x="588" y="674.0" fill="#726f83" font-family="Courier New" font-size="12">0,N</text>
<path d="M 616.0 658.0 L 604.0 664.0 L 608.0 658.0 L 604.0 652.0 Z" fill="#726f83" stroke-width="0"/>
<g id="association-FAIRE_PARTIE">
	<path d="M 522 632 a 14 14 90 0 1 14 14 V 658 h -116 V 646 a 14 14 90 0 1 14 -14" fill="#b2bba4" stroke="#b2bba4" stroke-width="0"/>
	<path d="M 536 658.0 v 12 a 14 14 90 0 1 -14 14 H 434 a 14 14 90 0 1 -14 -14 V 658.0 H 116" fill="#ccd6ba" stroke="#ccd6ba" stroke-width="0"/>
	<rect x="420" y="632" width="116" height="52" fill="none" rx="14" stroke="#85956b" stroke-width="1.5"/>
	<line x1="420" y1="658" x2="536" y2="658" stroke="#85956b" stroke-width="1"/>
	<text x="427" y="650.6" fill="#27360c" font-family="Courier New" font-size="14">FAIRE_PARTIE</text>
</g>

<!-- Association ETRE_DANS -->
<line x1="883" y1="537" x2="1098" y2="537" stroke="#726f83" stroke-width="1"/>
<text x="974" y="553.0" fill="#726f83" font-family="Courier New" font-size="12">1,1</text>
<line x1="1098" y1="398" x2="1098" y2="537" stroke="#726f83" stroke-width="1"/>
<text x="1103.0" y="458" fill="#726f83" font-family="Courier New" font-size="12">0,N</text>
<path d="M 1098.0 442.0 L 1104.0 454.0 L 1098.0 450.0 L 1092.0 454.0 Z" fill="#726f83" stroke-width="0"/>
<g id="association-ETRE_DANS">
	<path d="M 1130 511 a 14 14 90 0 1 14 14 V 537 h -92 V 525 a 14 14 90 0 1 14 -14" fill="#b2bba4" stroke="#b2bba4" stroke-width="0"/>
	<path d="M 1144 537.0 v 12 a 14 14 90 0 1 -14 14 H 1066 a 14 14 90 0 1 -14 -14 V 537.0 H 92" fill="#ccd6ba" stroke="#ccd6ba" stroke-width="0"/>
	<rect x="1052" y="511" width="92" height="52" fill="none" rx="14" stroke="#85956b" stroke-width="1.5"/>
	<line x1="1052" y1="537" x2="1144" y2="537" stroke="#85956b" stroke-width="1"/>
	<text x="1059" y="529.6" fill="#27360c" font-family="Courier New" font-size="14">ETRE_DANS</text>
</g>

<!-- Association APPARTENIR -->
<line x1="284" y1="398" x2="284" y2="537" stroke="#726f83" stroke-width="1"/>
<text x="289.0" y="449" fill="#726f83" font-family="Courier New" font-size="12">1,N</text>
<line x1="478" y1="537" x2="284" y2="537" stroke="#726f83" stroke-width="1"/>
<text x="381" y="553.0" fill="#726f83" font-family="Courier New" font-size="12">1,N</text>
<g id="association-APPARTENIR">
	<path d="M 320 511 a 14 14 90 0 1 14 14 V 537 h -100 V 525 a 14 14 90 0 1 14 -14" fill="#b2bba4" stroke="#b2bba4" stroke-width="0"/>
	<path d="M 334 537.0 v 12 a 14 14 90 0 1 -14 14 H 248 a 14 14 90 0 1 -14 -14 V 537.0 H 100" fill="#ccd6ba" stroke="#ccd6ba" stroke-width="0"/>
	<rect x="234" y="511" width="100" height="52" fill="none" rx="14" stroke="#85956b" stroke-width="1.5"/>
	<line x1="234" y1="537" x2="334" y2="537" stroke="#85956b" stroke-width="1"/>
	<text x="241" y="529.6" fill="#27360c" font-family="Courier New" font-size="14">APPARTENIR</text>
</g>

<!-- Association CONCERNER -->
<line x1="478" y1="259" x2="284" y2="259" stroke="#726f83" stroke-width="1"/>
<text x="335" y="275.0" fill="#726f83" font-family="Courier New" font-size="12">1,1</text>
<line x1="284" y1="398" x2="284" y2="259" stroke="#726f83" stroke-width="1"/>
<text x="289.0" y="355" fill="#726f83" font-family="Courier New" font-size="12">0,N</text>
<path d="M 284.0 363.0 L 278.0 351.0 L 284.0 355.0 L 290.0 351.0 Z" fill="#726f83" stroke-width="0"/>
<g id="association-CONCERNER">
	<path d="M 316 233 a 14 14 90 0 1 14 14 V 259 h -92 V 247 a 14 14 90 0 1 14 -14" fill="#b2bba4" stroke="#b2bba4" stroke-width="0"/>
	<path d="M 330 259.0 v 12 a 14 14 90 0 1 -14 14 H 252 a 14 14 90 0 1 -14 -14 V 259.0 H 92" fill="#ccd6ba" stroke="#ccd6ba" stroke-width="0"/>
	<rect x="238" y="233" width="92" height="52" fill="none" rx="14" stroke="#85956b" stroke-width="1.5"/>
	<line x1="238" y1="259" x2="330" y2="259" stroke="#85956b" stroke-width="1"/>
	<text x="245" y="251.6" fill="#27360c" font-family="Courier New" font-size="14">CONCERNER</text>
</g>

<!-- Association SONDE_AVOIR_ADRESSE -->
<line x1="478" y1="537" x2="668" y2="537" stroke="#726f83" stroke-width="1"/>
<text x="552" y="553.0" fill="#726f83" font-family="Courier New" font-size="12">1,1</text>
<line x1="883" y1="537" x2="668" y2="537" stroke="#726f83" stroke-width="1"/>
<text x="769" y="553.0" fill="#726f83" font-family="Courier New" font-size="12">1,1</text>
<g id="association-SONDE_AVOIR_ADRESSE">
	<path d="M 742 511 a 14 14 90 0 1 14 14 V 537 h -176 V 525 a 14 14 90 0 1 14 -14" fill="#b2bba4" stroke="#b2bba4" stroke-width="0"/>
	<path d="M 756 537.0 v 12 a 14 14 90 0 1 -14 14 H 594 a 14 14 90 0 1 -14 -14 V 537.0 H 176" fill="#ccd6ba" stroke="#ccd6ba" stroke-width="0"/>
	<rect x="580" y="511" width="176" height="52" fill="none" rx="14" stroke="#85956b" stroke-width="1.5"/>
	<line x1="580" y1="537" x2="756" y2="537" stroke="#85956b" stroke-width="1"/>
	<text x="587" y="529.6" fill="#27360c" font-family="Courier New" font-size="14">SONDE_AVOIR_ADRESSE</text>
</g>

<!-- Entity CSP -->
<g id="entity-CSP">
	<g id="frame-CSP">
		<rect x="616" y="623" width="104" height="26" fill="#97b8ff" stroke="#97b8ff" stroke-width="0"/>
		<rect x="616" y="649.0" width="104" height="44" fill="#c0d4ff" stroke="#c0d4ff" stroke-width="0"/>
		<rect x="616" y="623" width="104" height="70" fill="none" stroke="#578dff" stroke-width="1.5"/>
		<line x1="616" y1="649" x2="720" y2="649" stroke="#578dff" stroke-width="1"/>
	</g>
	<text x="655" y="641.6" fill="#131114" font-family="Courier New" font-size="14">CSP</text>
	<text x="621" y="667.6" fill="#3e3c42" font-family="Courier New" font-size="14">id_csp</text>
	<line x1="621" y1="670.0" x2="673" y2="670.0" stroke="#3e3c42" stroke-width="1"/>
	<text x="621" y="685.6" fill="#3e3c42" font-family="Courier New" font-size="14">libelle_csp</text>
</g>

<!-- Entity ENTREPRISE -->
<g id="entity-ENTREPRISE">
	<g id="frame-ENTREPRISE">
		<rect x="595" y="345" width="146" height="26" fill="#97b8ff" stroke="#97b8ff" stroke-width="0"/>
		<rect x="595" y="371.0" width="146" height="80" fill="#c0d4ff" stroke="#c0d4ff" stroke-width="0"/>
		<rect x="595" y="345" width="146" height="106" fill="none" stroke="#578dff" stroke-width="1.5"/>
		<line x1="595" y1="371" x2="741" y2="371" stroke="#578dff" stroke-width="1"/>
	</g>
	<text x="625" y="363.6" fill="#131114" font-family="Courier New" font-size="14">ENTREPRISE</text>
	<text x="600" y="389.6" fill="#3e3c42" font-family="Courier New" font-size="14">id_entreprise</text>
	<line x1="600" y1="392.0" x2="710" y2="392.0" stroke="#3e3c42" stroke-width="1"/>
	<text x="600" y="407.6" fill="#3e3c42" font-family="Courier New" font-size="14">nom_entreprise</text>
	<text x="600" y="425.6" fill="#3e3c42" font-family="Courier New" font-size="14">tel_entreprise</text>
	<text x="600" y="443.6" fill="#3e3c42" font-family="Courier New" font-size="14">email_entreprise</text>
</g>

<!-- Entity CHOIX_MULTIPLE -->
<g id="entity-CHOIX_MULTIPLE">
	<g id="frame-CHOIX_MULTIPLE">
		<rect x="806" y="18" width="154" height="26" fill="#97b8ff" stroke="#97b8ff" stroke-width="0"/>
		<rect x="806" y="44.0" width="154" height="44" fill="#c0d4ff" stroke="#c0d4ff" stroke-width="0"/>
		<rect x="806" y="18" width="154" height="70" fill="none" stroke="#578dff" stroke-width="1.5"/>
		<line x1="806" y1="44" x2="960" y2="44" stroke="#578dff" stroke-width="1"/>
	</g>
	<text x="823" y="36.6" fill="#131114" font-family="Courier New" font-size="14">CHOIX_MULTIPLE</text>
	<text x="811" y="62.6" fill="#3e3c42" font-family="Courier New" font-size="14">id_choixmul</text>
	<line x1="811" y1="65.0" x2="905" y2="65.0" stroke="#3e3c42" stroke-width="1"/>
	<text x="811" y="80.6" fill="#3e3c42" font-family="Courier New" font-size="14">intitule_choixmul</text>
</g>

<!-- Entity VILLE -->
<g id="entity-VILLE">
	<g id="frame-VILLE">
		<rect x="1025" y="354" width="146" height="26" fill="#97b8ff" stroke="#97b8ff" stroke-width="0"/>
		<rect x="1025" y="380.0" width="146" height="62" fill="#c0d4ff" stroke="#c0d4ff" stroke-width="0"/>
		<rect x="1025" y="354" width="146" height="88" fill="none" stroke="#578dff" stroke-width="1.5"/>
		<line x1="1025" y1="380" x2="1171" y2="380" stroke="#578dff" stroke-width="1"/>
	</g>
	<text x="1076" y="372.6" fill="#131114" font-family="Courier New" font-size="14">VILLE</text>
	<text x="1030" y="398.6" fill="#3e3c42" font-family="Courier New" font-size="14">codeinsee_ville</text>
	<line x1="1030" y1="401.0" x2="1157" y2="401.0" stroke="#3e3c42" stroke-width="1"/>
	<text x="1030" y="416.6" fill="#3e3c42" font-family="Courier New" font-size="14">nom_ville</text>
	<text x="1030" y="434.6" fill="#3e3c42" font-family="Courier New" font-size="14">codepostal_ville</text>
</g>

<!-- Entity SONDE -->
<g id="entity-SONDE">
	<g id="frame-SONDE">
		<rect x="409" y="466" width="138" height="26" fill="#97b8ff" stroke="#97b8ff" stroke-width="0"/>
		<rect x="409" y="492.0" width="138" height="116" fill="#c0d4ff" stroke="#c0d4ff" stroke-width="0"/>
		<rect x="409" y="466" width="138" height="142" fill="none" stroke="#578dff" stroke-width="1.5"/>
		<line x1="409" y1="492" x2="547" y2="492" stroke="#578dff" stroke-width="1"/>
	</g>
	<text x="456" y="484.6" fill="#131114" font-family="Courier New" font-size="14">SONDE</text>
	<text x="414" y="510.6" fill="#3e3c42" font-family="Courier New" font-size="14">id_sonde</text>
	<line x1="414" y1="513.0" x2="482" y2="513.0" stroke="#3e3c42" stroke-width="1"/>
	<text x="414" y="528.6" fill="#3e3c42" font-family="Courier New" font-size="14">nom_sonde</text>
	<text x="414" y="546.6" fill="#3e3c42" font-family="Courier New" font-size="14">prenom_sonde</text>
	<text x="414" y="564.6" fill="#3e3c42" font-family="Courier New" font-size="14">sexe_sonde</text>
	<text x="414" y="582.6" fill="#3e3c42" font-family="Courier New" font-size="14">datenaiss_sonde</text>
	<text x="414" y="600.6" fill="#3e3c42" font-family="Courier New" font-size="14">tel_sonde</text>
</g>

<!-- Entity TYPE_QUESTION -->
<g id="entity-TYPE_QUESTION">
	<g id="frame-TYPE_QUESTION">
		<rect x="9" y="18" width="154" height="26" fill="#97b8ff" stroke="#97b8ff" stroke-width="0"/>
		<rect x="9" y="44.0" width="154" height="44" fill="#c0d4ff" stroke="#c0d4ff" stroke-width="0"/>
		<rect x="9" y="18" width="154" height="70" fill="none" stroke="#578dff" stroke-width="1.5"/>
		<line x1="9" y1="44" x2="163" y2="44" stroke="#578dff" stroke-width="1"/>
	</g>
	<text x="31" y="36.6" fill="#131114" font-family="Courier New" font-size="14">TYPE_QUESTION</text>
	<text x="14" y="62.6" fill="#3e3c42" font-family="Courier New" font-size="14">id_typequest</text>
	<line x1="14" y1="65.0" x2="116" y2="65.0" stroke="#3e3c42" stroke-width="1"/>
	<text x="14" y="80.6" fill="#3e3c42" font-family="Courier New" font-size="14">libelle_typequest</text>
</g>

<!-- Entity ADRESSE -->
<g id="entity-ADRESSE">
	<g id="frame-ADRESSE">
		<rect x="797" y="448" width="172" height="26" fill="#97b8ff" stroke="#97b8ff" stroke-width="0"/>
		<rect x="797" y="474.0" width="172" height="152" fill="#c0d4ff" stroke="#c0d4ff" stroke-width="0"/>
		<rect x="797" y="448" width="172" height="178" fill="none" stroke="#578dff" stroke-width="1.5"/>
		<line x1="797" y1="474" x2="969" y2="474" stroke="#578dff" stroke-width="1"/>
	</g>
	<text x="853" y="466.6" fill="#131114" font-family="Courier New" font-size="14">ADRESSE</text>
	<text x="802" y="492.6" fill="#3e3c42" font-family="Courier New" font-size="14">id_adresse</text>
	<line x1="802" y1="495.0" x2="887" y2="495.0" stroke="#3e3c42" stroke-width="1"/>
	<text x="802" y="510.6" fill="#3e3c42" font-family="Courier New" font-size="14">numero_adresse</text>
	<text x="802" y="528.6" fill="#3e3c42" font-family="Courier New" font-size="14">bister_adresse</text>
	<text x="802" y="546.6" fill="#3e3c42" font-family="Courier New" font-size="14">libellevoie_adresse</text>
	<text x="802" y="564.6" fill="#3e3c42" font-family="Courier New" font-size="14">batiment_adresse</text>
	<text x="802" y="582.6" fill="#3e3c42" font-family="Courier New" font-size="14">etage_adresse</text>
	<text x="802" y="600.6" fill="#3e3c42" font-family="Courier New" font-size="14">escalier_adresse</text>
	<text x="802" y="618.6" fill="#3e3c42" font-family="Courier New" font-size="14">appartement_adresse</text>
</g>

<!-- Entity PANEL -->
<g id="entity-PANEL">
	<g id="frame-PANEL">
		<rect x="219" y="363" width="130" height="26" fill="#97b8ff" stroke="#97b8ff" stroke-width="0"/>
		<rect x="219" y="389.0" width="130" height="44" fill="#c0d4ff" stroke="#c0d4ff" stroke-width="0"/>
		<rect x="219" y="363" width="130" height="70" fill="none" stroke="#578dff" stroke-width="1.5"/>
		<line x1="219" y1="389" x2="349" y2="389" stroke="#578dff" stroke-width="1"/>
	</g>
	<text x="262" y="381.6" fill="#131114" font-family="Courier New" font-size="14">PANEL</text>
	<text x="224" y="407.6" fill="#3e3c42" font-family="Courier New" font-size="14">id_panel</text>
	<line x1="224" y1="410.0" x2="292" y2="410.0" stroke="#3e3c42" stroke-width="1"/>
	<text x="224" y="425.6" fill="#3e3c42" font-family="Courier New" font-size="14">intitule_panel</text>
</g>

<!-- Entity QUESTIONNAIRE -->
<g id="entity-QUESTIONNAIRE">
	<g id="frame-QUESTIONNAIRE">
		<rect x="363" y="197" width="230" height="26" fill="#97b8ff" stroke="#97b8ff" stroke-width="0"/>
		<rect x="363" y="223.0" width="230" height="98" fill="#c0d4ff" stroke="#c0d4ff" stroke-width="0"/>
		<rect x="363" y="197" width="230" height="124" fill="none" stroke="#578dff" stroke-width="1.5"/>
		<line x1="363" y1="223" x2="593" y2="223" stroke="#578dff" stroke-width="1"/>
	</g>
	<text x="423" y="215.6" fill="#131114" font-family="Courier New" font-size="14">QUESTIONNAIRE</text>
	<text x="368" y="241.6" fill="#3e3c42" font-family="Courier New" font-size="14">id_questionnaire</text>
	<line x1="368" y1="244.0" x2="504" y2="244.0" stroke="#3e3c42" stroke-width="1"/>
	<text x="368" y="259.6" fill="#3e3c42" font-family="Courier New" font-size="14">intitule_questionnaire</text>
	<text x="368" y="277.6" fill="#3e3c42" font-family="Courier New" font-size="14">dateheurelim_questionnaire</text>
	<text x="368" y="295.6" fill="#3e3c42" font-family="Courier New" font-size="14">accessible_questionnaire</text>
	<text x="368" y="313.6" fill="#3e3c42" font-family="Courier New" font-size="14">termine_questionnaire</text>
</g>

<!-- Entity QUESTION -->
<g id="entity-QUESTION">
	<g id="frame-QUESTION">
		<rect x="405" y="9" width="146" height="26" fill="#97b8ff" stroke="#97b8ff" stroke-width="0"/>
		<rect x="405" y="35.0" width="146" height="62" fill="#c0d4ff" stroke="#c0d4ff" stroke-width="0"/>
		<rect x="405" y="9" width="146" height="88" fill="none" stroke="#578dff" stroke-width="1.5"/>
		<line x1="405" y1="35" x2="551" y2="35" stroke="#578dff" stroke-width="1"/>
	</g>
	<text x="444" y="27.6" fill="#131114" font-family="Courier New" font-size="14">QUESTION</text>
	<text x="410" y="53.6" fill="#3e3c42" font-family="Courier New" font-size="14">id_question</text>
	<line x1="410" y1="56.0" x2="504" y2="56.0" stroke="#3e3c42" stroke-width="1"/>
	<text x="410" y="71.6" fill="#3e3c42" font-family="Courier New" font-size="14">enonce_question</text>
	<text x="410" y="89.6" fill="#3e3c42" font-family="Courier New" font-size="14">urlanal_question</text>
</g>
</svg>