<?xml version="1.0" standalone="no"?>
<!DOCTYPE svg PUBLIC "-//W3C//DTD SVG 1.1//EN"
"http://www.w3.org/Graphics/SVG/1.1/DTD/svg11.dtd">

<svg width="1144" height="729" view_box="0 0 1144 729"
xmlns="http://www.w3.org/2000/svg"
xmlns:link="http://www.w3.org/1999/xlink">\n\n<desc>Généré par Mocodo 2.3.7 le Fri, 31 Mar 2017 12:56:26</desc>

<rect id="frame" x="0" y="0" width="1144" height="729" fill="none" stroke="none" stroke-width="0"/>

<!-- Association ENTREPRISE_AVOIR_ADRESSE -->
<line x1="1026" y1="555" x2="1026" y2="425" stroke="#726f83" stroke-width="1"/>
<text x="1031.0" y="494" fill="#726f83" font-family="Courier New" font-size="12">1,1</text>
<line x1="1026" y1="286" x2="1026" y2="425" stroke="#726f83" stroke-width="1"/>
<text x="1031.0" y="391" fill="#726f83" font-family="Courier New" font-size="12">1,1</text>
<g id="association-ENTREPRISE_AVOIR_ADRESSE">
	<path d="M 1121 399 a 14 14 90 0 1 14 14 V 425 h -218 V 413 a 14 14 90 0 1 14 -14" fill="#b2bba4" stroke="#b2bba4" stroke-width="0"/>
	<path d="M 1135 425.0 v 12 a 14 14 90 0 1 -14 14 H 931 a 14 14 90 0 1 -14 -14 V 425.0 H 218" fill="#ccd6ba" stroke="#ccd6ba" stroke-width="0"/>
	<rect x="917" y="399" width="218" height="52" fill="none" rx="14" stroke="#85956b" stroke-width="1.5"/>
	<line x1="917" y1="425" x2="1135" y2="425" stroke="#85956b" stroke-width="1"/>
	<text x="924" y="417.6" fill="#27360c" font-family="Courier New" font-size="14">ENTREPRISE_AVOIR_ADRESSE</text>
</g>

<!-- Association AVOIR_TYPE_QUESTION -->
<line x1="233" y1="555" x2="233" y2="685" stroke="#726f83" stroke-width="1"/>
<text x="238.0" y="615" fill="#726f83" font-family="Courier New" font-size="12">1,1</text>
<line x1="431" y1="685" x2="233" y2="685" stroke="#726f83" stroke-width="1"/>
<text x="326" y="701.0" fill="#726f83" font-family="Courier New" font-size="12">1,N</text>
<path d="M 354.0 685.0 L 342.0 691.0 L 346.0 685.0 L 342.0 679.0 Z" fill="#726f83" stroke-width="0"/>
<g id="association-AVOIR_TYPE_QUESTION">
	<path d="M 307 659 a 14 14 90 0 1 14 14 V 685 h -176 V 673 a 14 14 90 0 1 14 -14" fill="#b2bba4" stroke="#b2bba4" stroke-width="0"/>
	<path d="M 321 685.0 v 12 a 14 14 90 0 1 -14 14 H 159 a 14 14 90 0 1 -14 -14 V 685.0 H 176" fill="#ccd6ba" stroke="#ccd6ba" stroke-width="0"/>
	<rect x="145" y="659" width="176" height="52" fill="none" rx="14" stroke="#85956b" stroke-width="1.5"/>
	<line x1="145" y1="685" x2="321" y2="685" stroke="#85956b" stroke-width="1"/>
	<text x="152" y="677.6" fill="#27360c" font-family="Courier New" font-size="14">AVOIR_TYPE_QUESTION</text>
</g>

<!-- Association CONCERNER -->
<line x1="629" y1="555" x2="629" y2="425" stroke="#726f83" stroke-width="1"/>
<text x="634.0" y="476" fill="#726f83" font-family="Courier New" font-size="12">1,1</text>
<line x1="431" y1="425" x2="629" y2="425" stroke="#726f83" stroke-width="1"/>
<text x="501" y="441.0" fill="#726f83" font-family="Courier New" font-size="12">0,N</text>
<path d="M 496.0 425.0 L 508.0 419.0 L 504.0 425.0 L 508.0 431.0 Z" fill="#726f83" stroke-width="0"/>
<g id="association-CONCERNER">
	<path d="M 661 399 a 14 14 90 0 1 14 14 V 425 h -92 V 413 a 14 14 90 0 1 14 -14" fill="#b2bba4" stroke="#b2bba4" stroke-width="0"/>
	<path d="M 675 425.0 v 12 a 14 14 90 0 1 -14 14 H 597 a 14 14 90 0 1 -14 -14 V 425.0 H 92" fill="#ccd6ba" stroke="#ccd6ba" stroke-width="0"/>
	<rect x="583" y="399" width="92" height="52" fill="none" rx="14" stroke="#85956b" stroke-width="1.5"/>
	<line x1="583" y1="425" x2="675" y2="425" stroke="#85956b" stroke-width="1"/>
	<text x="590" y="417.6" fill="#27360c" font-family="Courier New" font-size="14">CONCERNER</text>
</g>

<!-- Association ETRE_DANS -->
<line x1="1026" y1="286" x2="1026" y2="147" stroke="#726f83" stroke-width="1"/>
<text x="1031.0" y="189" fill="#726f83" font-family="Courier New" font-size="12">1,1</text>
<line x1="1026" y1="53" x2="1026" y2="147" stroke="#726f83" stroke-width="1"/>
<text x="1031.0" y="113" fill="#726f83" font-family="Courier New" font-size="12">0,N</text>
<path d="M 1026.0 97.0 L 1032.0 109.0 L 1026.0 105.0 L 1020.0 109.0 Z" fill="#726f83" stroke-width="0"/>
<g id="association-ETRE_DANS">
	<path d="M 1058 121 a 14 14 90 0 1 14 14 V 147 h -92 V 135 a 14 14 90 0 1 14 -14" fill="#b2bba4" stroke="#b2bba4" stroke-width="0"/>
	<path d="M 1072 147.0 v 12 a 14 14 90 0 1 -14 14 H 994 a 14 14 90 0 1 -14 -14 V 147.0 H 92" fill="#ccd6ba" stroke="#ccd6ba" stroke-width="0"/>
	<rect x="980" y="121" width="92" height="52" fill="none" rx="14" stroke="#85956b" stroke-width="1.5"/>
	<line x1="980" y1="147" x2="1072" y2="147" stroke="#85956b" stroke-width="1"/>
	<text x="987" y="139.6" fill="#27360c" font-family="Courier New" font-size="14">ETRE_DANS</text>
</g>

<!-- Association CONSTITUER -->
<line x1="233" y1="555" x2="431" y2="555" stroke="#726f83" stroke-width="1"/>
<text x="311" y="571.0" fill="#726f83" font-family="Courier New" font-size="12">1,1</text>
<line x1="629" y1="555" x2="431" y2="555" stroke="#726f83" stroke-width="1"/>
<text x="486" y="571.0" fill="#726f83" font-family="Courier New" font-size="12">1,N</text>
<path d="M 514.0 555.0 L 502.0 561.0 L 506.0 555.0 L 502.0 549.0 Z" fill="#726f83" stroke-width="0"/>
<g id="association-CONSTITUER">
	<path d="M 467 529 a 14 14 90 0 1 14 14 V 555 h -100 V 543 a 14 14 90 0 1 14 -14" fill="#b2bba4" stroke="#b2bba4" stroke-width="0"/>
	<path d="M 481 555.0 v 12 a 14 14 90 0 1 -14 14 H 395 a 14 14 90 0 1 -14 -14 V 555.0 H 100" fill="#ccd6ba" stroke="#ccd6ba" stroke-width="0"/>
	<rect x="381" y="529" width="100" height="52" fill="none" rx="14" stroke="#85956b" stroke-width="1.5"/>
	<line x1="381" y1="555" x2="481" y2="555" stroke="#85956b" stroke-width="1"/>
	<text x="388" y="547.6" fill="#27360c" font-family="Courier New" font-size="14">CONSTITUER</text>
</g>

<!-- Association APPARTENIR -->
<line x1="431" y1="425" x2="431" y2="286" stroke="#726f83" stroke-width="1"/>
<text x="436.0" y="382" fill="#726f83" font-family="Courier New" font-size="12">1,N</text>
<line x1="629" y1="286" x2="431" y2="286" stroke="#726f83" stroke-width="1"/>
<text x="532" y="302.0" fill="#726f83" font-family="Courier New" font-size="12">1,N</text>
<g id="association-APPARTENIR">
	<path d="M 467 260 a 14 14 90 0 1 14 14 V 286 h -100 V 274 a 14 14 90 0 1 14 -14" fill="#b2bba4" stroke="#b2bba4" stroke-width="0"/>
	<path d="M 481 286.0 v 12 a 14 14 90 0 1 -14 14 H 395 a 14 14 90 0 1 -14 -14 V 286.0 H 100" fill="#ccd6ba" stroke="#ccd6ba" stroke-width="0"/>
	<rect x="381" y="260" width="100" height="52" fill="none" rx="14" stroke="#85956b" stroke-width="1.5"/>
	<line x1="381" y1="286" x2="481" y2="286" stroke="#85956b" stroke-width="1"/>
	<text x="388" y="278.6" fill="#27360c" font-family="Courier New" font-size="14">APPARTENIR</text>
</g>

<!-- Association SONDE_AVOIR_ADRESSE -->
<line x1="629" y1="286" x2="819" y2="286" stroke="#726f83" stroke-width="1"/>
<text x="703" y="302.0" fill="#726f83" font-family="Courier New" font-size="12">1,1</text>
<line x1="1026" y1="286" x2="819" y2="286" stroke="#726f83" stroke-width="1"/>
<text x="912" y="302.0" fill="#726f83" font-family="Courier New" font-size="12">1,1</text>
<g id="association-SONDE_AVOIR_ADRESSE">
	<path d="M 893 260 a 14 14 90 0 1 14 14 V 286 h -176 V 274 a 14 14 90 0 1 14 -14" fill="#b2bba4" stroke="#b2bba4" stroke-width="0"/>
	<path d="M 907 286.0 v 12 a 14 14 90 0 1 -14 14 H 745 a 14 14 90 0 1 -14 -14 V 286.0 H 176" fill="#ccd6ba" stroke="#ccd6ba" stroke-width="0"/>
	<rect x="731" y="260" width="176" height="52" fill="none" rx="14" stroke="#85956b" stroke-width="1.5"/>
	<line x1="731" y1="286" x2="907" y2="286" stroke="#85956b" stroke-width="1"/>
	<text x="738" y="278.6" fill="#27360c" font-family="Courier New" font-size="14">SONDE_AVOIR_ADRESSE</text>
</g>

<!-- Association FAIRE_PARTIE -->
<line x1="629" y1="286" x2="629" y2="147" stroke="#726f83" stroke-width="1"/>
<text x="634.0" y="207" fill="#726f83" font-family="Courier New" font-size="12">1,1</text>
<line x1="819" y1="147" x2="629" y2="147" stroke="#726f83" stroke-width="1"/>
<text x="739" y="163.0" fill="#726f83" font-family="Courier New" font-size="12">0,N</text>
<path d="M 767.0 147.0 L 755.0 153.0 L 759.0 147.0 L 755.0 141.0 Z" fill="#726f83" stroke-width="0"/>
<g id="association-FAIRE_PARTIE">
	<path d="M 673 121 a 14 14 90 0 1 14 14 V 147 h -116 V 135 a 14 14 90 0 1 14 -14" fill="#b2bba4" stroke="#b2bba4" stroke-width="0"/>
	<path d="M 687 147.0 v 12 a 14 14 90 0 1 -14 14 H 585 a 14 14 90 0 1 -14 -14 V 147.0 H 116" fill="#ccd6ba" stroke="#ccd6ba" stroke-width="0"/>
	<rect x="571" y="121" width="116" height="52" fill="none" rx="14" stroke="#85956b" stroke-width="1.5"/>
	<line x1="571" y1="147" x2="687" y2="147" stroke="#85956b" stroke-width="1"/>
	<text x="578" y="139.6" fill="#27360c" font-family="Courier New" font-size="14">FAIRE_PARTIE</text>
</g>

<!-- Association ACHETER -->
<line x1="629" y1="555" x2="819" y2="555" stroke="#726f83" stroke-width="1"/>
<text x="749" y="571.0" fill="#726f83" font-family="Courier New" font-size="12">1,1</text>
<line x1="1026" y1="555" x2="819" y2="555" stroke="#726f83" stroke-width="1"/>
<text x="925" y="571.0" fill="#726f83" font-family="Courier New" font-size="12">1,N</text>
<path d="M 953.0 555.0 L 941.0 561.0 L 945.0 555.0 L 941.0 549.0 Z" fill="#726f83" stroke-width="0"/>
<g id="association-ACHETER">
	<path d="M 842 529 a 14 14 90 0 1 14 14 V 555 h -74 V 543 a 14 14 90 0 1 14 -14" fill="#b2bba4" stroke="#b2bba4" stroke-width="0"/>
	<path d="M 856 555.0 v 12 a 14 14 90 0 1 -14 14 H 796 a 14 14 90 0 1 -14 -14 V 555.0 H 74" fill="#ccd6ba" stroke="#ccd6ba" stroke-width="0"/>
	<rect x="782" y="529" width="74" height="52" fill="none" rx="14" stroke="#85956b" stroke-width="1.5"/>
	<line x1="782" y1="555" x2="856" y2="555" stroke="#85956b" stroke-width="1"/>
	<text x="789" y="547.6" fill="#27360c" font-family="Courier New" font-size="14">ACHETER</text>
</g>

<!-- Association ASSOCIER -->
<line x1="86" y1="425" x2="86" y2="555" stroke="#726f83" stroke-width="1"/>
<text x="91.0" y="476" fill="#726f83" font-family="Courier New" font-size="12">1,1</text>
<line x1="233" y1="555" x2="86" y2="555" stroke="#726f83" stroke-width="1"/>
<text x="132" y="571.0" fill="#726f83" font-family="Courier New" font-size="12">0,N</text>
<path d="M 160.0 555.0 L 148.0 561.0 L 152.0 555.0 L 148.0 549.0 Z" fill="#726f83" stroke-width="0"/>
<g id="association-ASSOCIER">
	<path d="M 113 529 a 14 14 90 0 1 14 14 V 555 h -82 V 543 a 14 14 90 0 1 14 -14" fill="#b2bba4" stroke="#b2bba4" stroke-width="0"/>
	<path d="M 127 555.0 v 12 a 14 14 90 0 1 -14 14 H 59 a 14 14 90 0 1 -14 -14 V 555.0 H 82" fill="#ccd6ba" stroke="#ccd6ba" stroke-width="0"/>
	<rect x="45" y="529" width="82" height="52" fill="none" rx="14" stroke="#85956b" stroke-width="1.5"/>
	<line x1="45" y1="555" x2="127" y2="555" stroke="#85956b" stroke-width="1"/>
	<text x="52" y="547.6" fill="#27360c" font-family="Courier New" font-size="14">ASSOCIER</text>
</g>

<!-- Entity PANEL -->
<g id="entity-PANEL">
	<g id="frame-PANEL">
		<rect x="366" y="390" width="130" height="26" fill="#97b8ff" stroke="#97b8ff" stroke-width="0"/>
		<rect x="366" y="416.0" width="130" height="44" fill="#c0d4ff" stroke="#c0d4ff" stroke-width="0"/>
		<rect x="366" y="390" width="130" height="70" fill="none" stroke="#578dff" stroke-width="1.5"/>
		<line x1="366" y1="416" x2="496" y2="416" stroke="#578dff" stroke-width="1"/>
	</g>
	<text x="409" y="408.6" fill="#131114" font-family="Courier New" font-size="14">PANEL</text>
	<text x="371" y="434.6" fill="#3e3c42" font-family="Courier New" font-size="14">id_panel</text>
	<line x1="371" y1="437.0" x2="439" y2="437.0" stroke="#3e3c42" stroke-width="1"/>
	<text x="371" y="452.6" fill="#3e3c42" font-family="Courier New" font-size="14">intitule_panel</text>
</g>

<!-- Entity TYPE_QUESTION -->
<g id="entity-TYPE_QUESTION">
	<g id="frame-TYPE_QUESTION">
		<rect x="354" y="650" width="154" height="26" fill="#97b8ff" stroke="#97b8ff" stroke-width="0"/>
		<rect x="354" y="676.0" width="154" height="44" fill="#c0d4ff" stroke="#c0d4ff" stroke-width="0"/>
		<rect x="354" y="650" width="154" height="70" fill="none" stroke="#578dff" stroke-width="1.5"/>
		<line x1="354" y1="676" x2="508" y2="676" stroke="#578dff" stroke-width="1"/>
	</g>
	<text x="376" y="668.6" fill="#131114" font-family="Courier New" font-size="14">TYPE_QUESTION</text>
	<text x="359" y="694.6" fill="#3e3c42" font-family="Courier New" font-size="14">id_typequest</text>
	<line x1="359" y1="697.0" x2="461" y2="697.0" stroke="#3e3c42" stroke-width="1"/>
	<text x="359" y="712.6" fill="#3e3c42" font-family="Courier New" font-size="14">libelle_typequest</text>
</g>

<!-- Entity QUESTION -->
<g id="entity-QUESTION">
	<g id="frame-QUESTION">
		<rect x="160" y="511" width="146" height="26" fill="#97b8ff" stroke="#97b8ff" stroke-width="0"/>
		<rect x="160" y="537.0" width="146" height="62" fill="#c0d4ff" stroke="#c0d4ff" stroke-width="0"/>
		<rect x="160" y="511" width="146" height="88" fill="none" stroke="#578dff" stroke-width="1.5"/>
		<line x1="160" y1="537" x2="306" y2="537" stroke="#578dff" stroke-width="1"/>
	</g>
	<text x="199" y="529.6" fill="#131114" font-family="Courier New" font-size="14">QUESTION</text>
	<text x="165" y="555.6" fill="#3e3c42" font-family="Courier New" font-size="14">id_question</text>
	<line x1="165" y1="558.0" x2="259" y2="558.0" stroke="#3e3c42" stroke-width="1"/>
	<text x="165" y="573.6" fill="#3e3c42" font-family="Courier New" font-size="14">enonce_question</text>
	<text x="165" y="591.6" fill="#3e3c42" font-family="Courier New" font-size="14">urlanal_question</text>
</g>

<!-- Entity QUESTIONNAIRE -->
<g id="entity-QUESTIONNAIRE">
	<g id="frame-QUESTIONNAIRE">
		<rect x="514" y="484" width="230" height="26" fill="#97b8ff" stroke="#97b8ff" stroke-width="0"/>
		<rect x="514" y="510.0" width="230" height="116" fill="#c0d4ff" stroke="#c0d4ff" stroke-width="0"/>
		<rect x="514" y="484" width="230" height="142" fill="none" stroke="#578dff" stroke-width="1.5"/>
		<line x1="514" y1="510" x2="744" y2="510" stroke="#578dff" stroke-width="1"/>
	</g>
	<text x="574" y="502.6" fill="#131114" font-family="Courier New" font-size="14">QUESTIONNAIRE</text>
	<text x="519" y="528.6" fill="#3e3c42" font-family="Courier New" font-size="14">id_questionnaire</text>
	<line x1="519" y1="531.0" x2="655" y2="531.0" stroke="#3e3c42" stroke-width="1"/>
	<text x="519" y="546.6" fill="#3e3c42" font-family="Courier New" font-size="14">intitule_questionnaire</text>
	<text x="519" y="564.6" fill="#3e3c42" font-family="Courier New" font-size="14">dateheurelim_questionnaire</text>
	<text x="519" y="582.6" fill="#3e3c42" font-family="Courier New" font-size="14">accessible_questionnaire</text>
	<text x="519" y="600.6" fill="#3e3c42" font-family="Courier New" font-size="14">termine_questionnaire</text>
	<text x="519" y="618.6" fill="#3e3c42" font-family="Courier New" font-size="14">analyse_questionnaire</text>
</g>

<!-- Entity CSP -->
<g id="entity-CSP">
	<g id="frame-CSP">
		<rect x="767" y="112" width="104" height="26" fill="#97b8ff" stroke="#97b8ff" stroke-width="0"/>
		<rect x="767" y="138.0" width="104" height="44" fill="#c0d4ff" stroke="#c0d4ff" stroke-width="0"/>
		<rect x="767" y="112" width="104" height="70" fill="none" stroke="#578dff" stroke-width="1.5"/>
		<line x1="767" y1="138" x2="871" y2="138" stroke="#578dff" stroke-width="1"/>
	</g>
	<text x="806" y="130.6" fill="#131114" font-family="Courier New" font-size="14">CSP</text>
	<text x="772" y="156.6" fill="#3e3c42" font-family="Courier New" font-size="14">id_csp</text>
	<line x1="772" y1="159.0" x2="824" y2="159.0" stroke="#3e3c42" stroke-width="1"/>
	<text x="772" y="174.6" fill="#3e3c42" font-family="Courier New" font-size="14">libelle_csp</text>
</g>

<!-- Entity ENTREPRISE -->
<g id="entity-ENTREPRISE">
	<g id="frame-ENTREPRISE">
		<rect x="953" y="502" width="146" height="26" fill="#97b8ff" stroke="#97b8ff" stroke-width="0"/>
		<rect x="953" y="528.0" width="146" height="80" fill="#c0d4ff" stroke="#c0d4ff" stroke-width="0"/>
		<rect x="953" y="502" width="146" height="106" fill="none" stroke="#578dff" stroke-width="1.5"/>
		<line x1="953" y1="528" x2="1099" y2="528" stroke="#578dff" stroke-width="1"/>
	</g>
	<text x="983" y="520.6" fill="#131114" font-family="Courier New" font-size="14">ENTREPRISE</text>
	<text x="958" y="546.6" fill="#3e3c42" font-family="Courier New" font-size="14">id_entreprise</text>
	<line x1="958" y1="549.0" x2="1068" y2="549.0" stroke="#3e3c42" stroke-width="1"/>
	<text x="958" y="564.6" fill="#3e3c42" font-family="Courier New" font-size="14">nom_entreprise</text>
	<text x="958" y="582.6" fill="#3e3c42" font-family="Courier New" font-size="14">tel_entreprise</text>
	<text x="958" y="600.6" fill="#3e3c42" font-family="Courier New" font-size="14">email_entreprise</text>
</g>

<!-- Entity VILLE -->
<g id="entity-VILLE">
	<g id="frame-VILLE">
		<rect x="953" y="9" width="146" height="26" fill="#97b8ff" stroke="#97b8ff" stroke-width="0"/>
		<rect x="953" y="35.0" width="146" height="62" fill="#c0d4ff" stroke="#c0d4ff" stroke-width="0"/>
		<rect x="953" y="9" width="146" height="88" fill="none" stroke="#578dff" stroke-width="1.5"/>
		<line x1="953" y1="35" x2="1099" y2="35" stroke="#578dff" stroke-width="1"/>
	</g>
	<text x="1004" y="27.6" fill="#131114" font-family="Courier New" font-size="14">VILLE</text>
	<text x="958" y="53.6" fill="#3e3c42" font-family="Courier New" font-size="14">codeinsee_ville</text>
	<line x1="958" y1="56.0" x2="1085" y2="56.0" stroke="#3e3c42" stroke-width="1"/>
	<text x="958" y="71.6" fill="#3e3c42" font-family="Courier New" font-size="14">nom_ville</text>
	<text x="958" y="89.6" fill="#3e3c42" font-family="Courier New" font-size="14">codepostal_ville</text>
</g>

<!-- Entity CHOIX_MULTIPLE -->
<g id="entity-CHOIX_MULTIPLE">
	<g id="frame-CHOIX_MULTIPLE">
		<rect x="9" y="390" width="154" height="26" fill="#97b8ff" stroke="#97b8ff" stroke-width="0"/>
		<rect x="9" y="416.0" width="154" height="44" fill="#c0d4ff" stroke="#c0d4ff" stroke-width="0"/>
		<rect x="9" y="390" width="154" height="70" fill="none" stroke="#578dff" stroke-width="1.5"/>
		<line x1="9" y1="416" x2="163" y2="416" stroke="#578dff" stroke-width="1"/>
	</g>
	<text x="26" y="408.6" fill="#131114" font-family="Courier New" font-size="14">CHOIX_MULTIPLE</text>
	<text x="14" y="434.6" fill="#3e3c42" font-family="Courier New" font-size="14">id_choixmul</text>
	<line x1="14" y1="437.0" x2="108" y2="437.0" stroke="#3e3c42" stroke-width="1"/>
	<text x="14" y="452.6" fill="#3e3c42" font-family="Courier New" font-size="14">intitule_choixmul</text>
</g>

<!-- Entity ADRESSE -->
<g id="entity-ADRESSE">
	<g id="frame-ADRESSE">
		<rect x="940" y="197" width="172" height="26" fill="#97b8ff" stroke="#97b8ff" stroke-width="0"/>
		<rect x="940" y="223.0" width="172" height="152" fill="#c0d4ff" stroke="#c0d4ff" stroke-width="0"/>
		<rect x="940" y="197" width="172" height="178" fill="none" stroke="#578dff" stroke-width="1.5"/>
		<line x1="940" y1="223" x2="1112" y2="223" stroke="#578dff" stroke-width="1"/>
	</g>
	<text x="996" y="215.6" fill="#131114" font-family="Courier New" font-size="14">ADRESSE</text>
	<text x="945" y="241.6" fill="#3e3c42" font-family="Courier New" font-size="14">id_adresse</text>
	<line x1="945" y1="244.0" x2="1030" y2="244.0" stroke="#3e3c42" stroke-width="1"/>
	<text x="945" y="259.6" fill="#3e3c42" font-family="Courier New" font-size="14">numero_adresse</text>
	<text x="945" y="277.6" fill="#3e3c42" font-family="Courier New" font-size="14">bister_adresse</text>
	<text x="945" y="295.6" fill="#3e3c42" font-family="Courier New" font-size="14">libellevoie_adresse</text>
	<text x="945" y="313.6" fill="#3e3c42" font-family="Courier New" font-size="14">batiment_adresse</text>
	<text x="945" y="331.6" fill="#3e3c42" font-family="Courier New" font-size="14">etage_adresse</text>
	<text x="945" y="349.6" fill="#3e3c42" font-family="Courier New" font-size="14">escalier_adresse</text>
	<text x="945" y="367.6" fill="#3e3c42" font-family="Courier New" font-size="14">appartement_adresse</text>
</g>

<!-- Entity SONDE -->
<g id="entity-SONDE">
	<g id="frame-SONDE">
		<rect x="560" y="215" width="138" height="26" fill="#97b8ff" stroke="#97b8ff" stroke-width="0"/>
		<rect x="560" y="241.0" width="138" height="116" fill="#c0d4ff" stroke="#c0d4ff" stroke-width="0"/>
		<rect x="560" y="215" width="138" height="142" fill="none" stroke="#578dff" stroke-width="1.5"/>
		<line x1="560" y1="241" x2="698" y2="241" stroke="#578dff" stroke-width="1"/>
	</g>
	<text x="607" y="233.6" fill="#131114" font-family="Courier New" font-size="14">SONDE</text>
	<text x="565" y="259.6" fill="#3e3c42" font-family="Courier New" font-size="14">id_sonde</text>
	<line x1="565" y1="262.0" x2="633" y2="262.0" stroke="#3e3c42" stroke-width="1"/>
	<text x="565" y="277.6" fill="#3e3c42" font-family="Courier New" font-size="14">nom_sonde</text>
	<text x="565" y="295.6" fill="#3e3c42" font-family="Courier New" font-size="14">prenom_sonde</text>
	<text x="565" y="313.6" fill="#3e3c42" font-family="Courier New" font-size="14">sexe_sonde</text>
	<text x="565" y="331.6" fill="#3e3c42" font-family="Courier New" font-size="14">datenaiss_sonde</text>
	<text x="565" y="349.6" fill="#3e3c42" font-family="Courier New" font-size="14">tel_sonde</text>
</g>
</svg>