<?xml version="1.0" standalone="no"?>
<!DOCTYPE svg PUBLIC "-//W3C//DTD SVG 1.1//EN"
"http://www.w3.org/Graphics/SVG/1.1/DTD/svg11.dtd">

<svg width="715" height="443" view_box="0 0 715 443"
xmlns="http://www.w3.org/2000/svg"
xmlns:link="http://www.w3.org/1999/xlink">\n\n<desc>Généré par Mocodo 2.3.7 le Fri, 31 Mar 2017 13:24:34</desc>

<rect id="frame" x="0" y="0" width="715" height="443" fill="none" stroke="none" stroke-width="0"/>

<!-- Association CREER -->
<line x1="332" y1="130" x2="677" y2="242" stroke="#726f83" stroke-width="1"/>
<text x="427" y="153.74625700179305" fill="#726f83" font-family="Courier New" font-size="12">1,N</text>
<path d="M 422.0 159.2173913043478 L 435.2662699934954 157.2158717666758 L 429.6090825399101 161.68758621585485 L 431.5609776262349 168.62949557654096 Z" fill="#726f83" stroke-width="0"/>
<line x1="332" y1="363" x2="677" y2="242" stroke="#726f83" stroke-width="1"/>
<text x="452" y="335.92796523969463" fill="#726f83" font-family="Courier New" font-size="12">0,1</text>
<line x1="517" y1="242" x2="677" y2="242" stroke="#726f83" stroke-width="1"/>
<text x="620" y="258.0" fill="#726f83" font-family="Courier New" font-size="12">0,N</text>
<g id="association-CREER">
	<path d="M 692 216 a 14 14 90 0 1 14 14 V 242 h -58 V 230 a 14 14 90 0 1 14 -14" fill="#b2bba4" stroke="#b2bba4" stroke-width="0"/>
	<path d="M 706 242.0 v 12 a 14 14 90 0 1 -14 14 H 662 a 14 14 90 0 1 -14 -14 V 242.0 H 58" fill="#ccd6ba" stroke="#ccd6ba" stroke-width="0"/>
	<rect x="648" y="216" width="58" height="52" fill="none" rx="14" stroke="#85956b" stroke-width="1.5"/>
	<line x1="648" y1="242" x2="706" y2="242" stroke="#85956b" stroke-width="1"/>
	<text x="655" y="234.6" fill="#27360c" font-family="Courier New" font-size="14">CREER</text>
</g>

<!-- Association ANALYSER -->
<line x1="332" y1="130" x2="332" y2="242" stroke="#726f83" stroke-width="1"/>
<text x="337.0" y="208" fill="#726f83" font-family="Courier New" font-size="12">1,N</text>
<path d="M 332.0 192.0 L 338.0 204.0 L 332.0 200.0 L 326.0 204.0 Z" fill="#726f83" stroke-width="0"/>
<line x1="332" y1="363" x2="332" y2="242" stroke="#726f83" stroke-width="1"/>
<text x="337.0" y="284" fill="#726f83" font-family="Courier New" font-size="12">0,1</text>
<line x1="517" y1="242" x2="332" y2="242" stroke="#726f83" stroke-width="1"/>
<text x="391" y="258.0" fill="#726f83" font-family="Courier New" font-size="12">0,N</text>
<g id="association-ANALYSER">
	<path d="M 372 216 a 14 14 90 0 1 14 14 V 242 h -108 V 230 a 14 14 90 0 1 14 -14" fill="#b2bba4" stroke="#b2bba4" stroke-width="0"/>
	<path d="M 386 242.0 v 12 a 14 14 90 0 1 -14 14 H 292 a 14 14 90 0 1 -14 -14 V 242.0 H 108" fill="#ccd6ba" stroke="#ccd6ba" stroke-width="0"/>
	<rect x="278" y="216" width="108" height="52" fill="none" rx="14" stroke="#85956b" stroke-width="1.5"/>
	<line x1="278" y1="242" x2="386" y2="242" stroke="#85956b" stroke-width="1"/>
	<text x="298" y="234.6" fill="#27360c" font-family="Courier New" font-size="14">ANALYSER</text>
	<text x="285" y="260.6" fill="#607734" font-family="Courier New" font-size="14">url_analyse</text>
</g>

<!-- Association SONDER -->
<line x1="332" y1="130" x2="109" y2="242" stroke="#726f83" stroke-width="1"/>
<text x="214" y="171.12755276868634" fill="#726f83" font-family="Courier New" font-size="12">0,N</text>
<path d="M 242.0 175.2017937219731 L 233.9694031701791 185.94932900020643 L 234.85100561656662 178.79232004907865 L 228.58361367952077 175.2258374250564 Z" fill="#726f83" stroke-width="0"/>
<line x1="109" y1="363" x2="109" y2="242" stroke="#726f83" stroke-width="1"/>
<text x="114.0" y="284" fill="#726f83" font-family="Courier New" font-size="12">0,N</text>
<line x1="332" y1="363" x2="109" y2="242" stroke="#726f83" stroke-width="1"/>
<text x="189" y="312.37265069830465" fill="#726f83" font-family="Courier New" font-size="12">0,N</text>
<g id="association-SONDER">
	<path d="M 174 216 a 14 14 90 0 1 14 14 V 242 h -158 V 230 a 14 14 90 0 1 14 -14" fill="#b2bba4" stroke="#b2bba4" stroke-width="0"/>
	<path d="M 188 242.0 v 12 a 14 14 90 0 1 -14 14 H 44 a 14 14 90 0 1 -14 -14 V 242.0 H 158" fill="#ccd6ba" stroke="#ccd6ba" stroke-width="0"/>
	<rect x="30" y="216" width="158" height="52" fill="none" rx="14" stroke="#85956b" stroke-width="1.5"/>
	<line x1="30" y1="242" x2="188" y2="242" stroke="#85956b" stroke-width="1"/>
	<text x="83" y="234.6" fill="#27360c" font-family="Courier New" font-size="14">SONDER</text>
	<text x="37" y="260.6" fill="#607734" font-family="Courier New" font-size="14">dateheure_sondage</text>
</g>

<!-- Association AVOIR_TYPE_UTILISATEUR -->
<line x1="332" y1="130" x2="109" y2="130" stroke="#726f83" stroke-width="1"/>
<text x="214" y="122.0" fill="#726f83" font-family="Courier New" font-size="12">1,1</text>
<line x1="109" y1="44" x2="109" y2="130" stroke="#726f83" stroke-width="1"/>
<text x="114.0" y="95" fill="#726f83" font-family="Courier New" font-size="12">1,N</text>
<path d="M 109.0 79.0 L 115.0 91.0 L 109.0 87.0 L 103.0 91.0 Z" fill="#726f83" stroke-width="0"/>
<g id="association-AVOIR_TYPE_UTILISATEUR">
	<path d="M 195 104 a 14 14 90 0 1 14 14 V 130 h -200 V 118 a 14 14 90 0 1 14 -14" fill="#b2bba4" stroke="#b2bba4" stroke-width="0"/>
	<path d="M 209 130.0 v 12 a 14 14 90 0 1 -14 14 H 23 a 14 14 90 0 1 -14 -14 V 130.0 H 200" fill="#ccd6ba" stroke="#ccd6ba" stroke-width="0"/>
	<rect x="9" y="104" width="200" height="52" fill="none" rx="14" stroke="#85956b" stroke-width="1.5"/>
	<line x1="9" y1="130" x2="209" y2="130" stroke="#85956b" stroke-width="1"/>
	<text x="16" y="122.6" fill="#27360c" font-family="Courier New" font-size="14">AVOIR_TYPE_UTILISATEUR</text>
</g>

<!-- Entity DATE -->
<g id="entity-DATE">
	<g id="frame-DATE">
		<rect x="419" y="216" width="196" height="26" fill="#97b8ff" stroke="#97b8ff" stroke-width="0"/>
		<rect x="419" y="242.0" width="196" height="26" fill="#c0d4ff" stroke="#c0d4ff" stroke-width="0"/>
		<rect x="419" y="216" width="196" height="52" fill="none" stroke="#578dff" stroke-width="1.5"/>
		<line x1="419" y1="242" x2="615" y2="242" stroke="#578dff" stroke-width="1"/>
	</g>
	<text x="499" y="234.6" fill="#131114" font-family="Courier New" font-size="14">DATE</text>
	<text x="424" y="260.6" fill="#3e3c42" font-family="Courier New" font-size="14">aaaa-mm-jj_hh:mm:ss'ms</text>
	<line x1="424" y1="263.0" x2="610" y2="263.0" stroke="#3e3c42" stroke-width="1"/>
</g>

<!-- Entity UTILISATEUR -->
<g id="entity-UTILISATEUR">
	<g id="frame-UTILISATEUR">
		<rect x="242" y="68" width="180" height="26" fill="#97b8ff" stroke="#97b8ff" stroke-width="0"/>
		<rect x="242" y="94.0" width="180" height="98" fill="#c0d4ff" stroke="#c0d4ff" stroke-width="0"/>
		<rect x="242" y="68" width="180" height="124" fill="none" stroke="#578dff" stroke-width="1.5"/>
		<line x1="242" y1="94" x2="422" y2="94" stroke="#578dff" stroke-width="1"/>
	</g>
	<text x="285" y="86.6" fill="#131114" font-family="Courier New" font-size="14">UTILISATEUR</text>
	<text x="247" y="112.6" fill="#3e3c42" font-family="Courier New" font-size="14">id_utilisateur</text>
	<line x1="247" y1="115.0" x2="366" y2="115.0" stroke="#3e3c42" stroke-width="1"/>
	<text x="247" y="130.6" fill="#3e3c42" font-family="Courier New" font-size="14">nom_utilisateur</text>
	<text x="247" y="148.6" fill="#3e3c42" font-family="Courier New" font-size="14">prenom_utilisateur</text>
	<text x="247" y="166.6" fill="#3e3c42" font-family="Courier New" font-size="14">login_utilisateur</text>
	<text x="247" y="184.6" fill="#3e3c42" font-family="Courier New" font-size="14">password_utilisateur</text>
</g>

<!-- Entity QUESTIONNAIRE -->
<g id="entity-QUESTIONNAIRE">
	<g id="frame-QUESTIONNAIRE">
		<rect x="217" y="292" width="230" height="26" fill="#97b8ff" stroke="#97b8ff" stroke-width="0"/>
		<rect x="217" y="318.0" width="230" height="116" fill="#c0d4ff" stroke="#c0d4ff" stroke-width="0"/>
		<rect x="217" y="292" width="230" height="142" fill="none" stroke="#578dff" stroke-width="1.5"/>
		<line x1="217" y1="318" x2="447" y2="318" stroke="#578dff" stroke-width="1"/>
	</g>
	<text x="277" y="310.6" fill="#131114" font-family="Courier New" font-size="14">QUESTIONNAIRE</text>
	<text x="222" y="336.6" fill="#3e3c42" font-family="Courier New" font-size="14">id_questionnaire</text>
	<line x1="222" y1="339.0" x2="358" y2="339.0" stroke="#3e3c42" stroke-width="1"/>
	<text x="222" y="354.6" fill="#3e3c42" font-family="Courier New" font-size="14">intitule_questionnaire</text>
	<text x="222" y="372.6" fill="#3e3c42" font-family="Courier New" font-size="14">dateheurelim_questionnaire</text>
	<text x="222" y="390.6" fill="#3e3c42" font-family="Courier New" font-size="14">accessible_questionnaire</text>
	<text x="222" y="408.6" fill="#3e3c42" font-family="Courier New" font-size="14">termine_questionnaire</text>
	<text x="222" y="426.6" fill="#3e3c42" font-family="Courier New" font-size="14">analyse_questionnaire</text>
</g>

<!-- Entity TYPE_UTILISATEUR -->
<g id="entity-TYPE_UTILISATEUR">
	<g id="frame-TYPE_UTILISATEUR">
		<rect x="36" y="9" width="146" height="26" fill="#97b8ff" stroke="#97b8ff" stroke-width="0"/>
		<rect x="36" y="35.0" width="146" height="44" fill="#c0d4ff" stroke="#c0d4ff" stroke-width="0"/>
		<rect x="36" y="9" width="146" height="70" fill="none" stroke="#578dff" stroke-width="1.5"/>
		<line x1="36" y1="35" x2="182" y2="35" stroke="#578dff" stroke-width="1"/>
	</g>
	<text x="41" y="27.6" fill="#131114" font-family="Courier New" font-size="14">TYPE_UTILISATEUR</text>
	<text x="41" y="53.6" fill="#3e3c42" font-family="Courier New" font-size="14">id_typeutil</text>
	<line x1="41" y1="56.0" x2="135" y2="56.0" stroke="#3e3c42" stroke-width="1"/>
	<text x="41" y="71.6" fill="#3e3c42" font-family="Courier New" font-size="14">libelle_typeutil</text>
</g>

<!-- Entity SONDE -->
<g id="entity-SONDE">
	<g id="frame-SONDE">
		<rect x="40" y="292" width="138" height="26" fill="#97b8ff" stroke="#97b8ff" stroke-width="0"/>
		<rect x="40" y="318.0" width="138" height="116" fill="#c0d4ff" stroke="#c0d4ff" stroke-width="0"/>
		<rect x="40" y="292" width="138" height="142" fill="none" stroke="#578dff" stroke-width="1.5"/>
		<line x1="40" y1="318" x2="178" y2="318" stroke="#578dff" stroke-width="1"/>
	</g>
	<text x="87" y="310.6" fill="#131114" font-family="Courier New" font-size="14">SONDE</text>
	<text x="45" y="336.6" fill="#3e3c42" font-family="Courier New" font-size="14">id_sonde</text>
	<line x1="45" y1="339.0" x2="113" y2="339.0" stroke="#3e3c42" stroke-width="1"/>
	<text x="45" y="354.6" fill="#3e3c42" font-family="Courier New" font-size="14">nom_sonde</text>
	<text x="45" y="372.6" fill="#3e3c42" font-family="Courier New" font-size="14">prenom_sonde</text>
	<text x="45" y="390.6" fill="#3e3c42" font-family="Courier New" font-size="14">sexe_sonde</text>
	<text x="45" y="408.6" fill="#3e3c42" font-family="Courier New" font-size="14">datenaiss_sonde</text>
	<text x="45" y="426.6" fill="#3e3c42" font-family="Courier New" font-size="14">tel_sonde</text>
</g>
</svg>