<?xml version="1.0" standalone="no"?>
<!DOCTYPE svg PUBLIC "-//W3C//DTD SVG 1.1//EN"
"http://www.w3.org/Graphics/SVG/1.1/DTD/svg11.dtd">

<svg width="480" height="554" view_box="0 0 480 554"
xmlns="http://www.w3.org/2000/svg"
xmlns:link="http://www.w3.org/1999/xlink">\n\n<desc>Généré par Mocodo 2.3.7 le Mon, 03 Apr 2017 20:29:11</desc>

<rect id="frame" x="0" y="0" width="480" height="554" fill="none" stroke="none" stroke-width="0"/>

<!-- Association CREER -->
<line x1="215" y1="241" x2="38" y2="398" stroke="#726f83" stroke-width="1"/>
<text x="143.6286368235411" y="319" fill="#726f83" font-family="Courier New" font-size="12">1,N</text>
<path d="M 145.1019108280255 303.0 L 140.1060677598638 315.45156825617966 L 139.1170429900247 308.30861158511937 L 132.14315038218476 306.47426649917844 Z" fill="#726f83" stroke-width="0"/>
<line x1="215" y1="398" x2="38" y2="398" stroke="#726f83" stroke-width="1"/>
<text x="72" y="414.0" fill="#726f83" font-family="Courier New" font-size="12">0,1</text>
<line x1="215" y1="519" x2="38" y2="398" stroke="#726f83" stroke-width="1"/>
<text x="176.74279210040135" y="485" fill="#726f83" font-family="Courier New" font-size="12">0,N</text>
<g id="association-CREER">
	<path d="M 53 372 a 14 14 90 0 1 14 14 V 398 h -58 V 386 a 14 14 90 0 1 14 -14" fill="#b2bba4" stroke="#b2bba4" stroke-width="0"/>
	<path d="M 67 398.0 v 12 a 14 14 90 0 1 -14 14 H 23 a 14 14 90 0 1 -14 -14 V 398.0 H 58" fill="#ccd6ba" stroke="#ccd6ba" stroke-width="0"/>
	<rect x="9" y="372" width="58" height="52" fill="none" rx="14" stroke="#85956b" stroke-width="1.5"/>
	<line x1="9" y1="398" x2="67" y2="398" stroke="#85956b" stroke-width="1"/>
	<text x="16" y="390.6" fill="#27360c" font-family="Courier New" font-size="14">CREER</text>
</g>

<!-- Association ANALYSER -->
<line x1="215" y1="241" x2="417" y2="398" stroke="#726f83" stroke-width="1"/>
<text x="272.597963584935" y="319" fill="#726f83" font-family="Courier New" font-size="12">1,N</text>
<path d="M 294.7707006369427 303.0 L 307.9274721671615 305.62666383491 L 301.08720176375004 307.909359786677 L 300.56343248714603 315.10141552512107 Z" fill="#726f83" stroke-width="0"/>
<line x1="215" y1="398" x2="417" y2="398" stroke="#726f83" stroke-width="1"/>
<text x="335" y="414.0" fill="#726f83" font-family="Courier New" font-size="12">0,N</text>
<line x1="215" y1="519" x2="417" y2="398" stroke="#726f83" stroke-width="1"/>
<text x="235.04356054008375" y="485" fill="#726f83" font-family="Courier New" font-size="12">0,N</text>
<g id="association-ANALYSER">
	<path d="M 457 372 a 14 14 90 0 1 14 14 V 398 h -108 V 386 a 14 14 90 0 1 14 -14" fill="#b2bba4" stroke="#b2bba4" stroke-width="0"/>
	<path d="M 471 398.0 v 12 a 14 14 90 0 1 -14 14 H 377 a 14 14 90 0 1 -14 -14 V 398.0 H 108" fill="#ccd6ba" stroke="#ccd6ba" stroke-width="0"/>
	<rect x="363" y="372" width="108" height="52" fill="none" rx="14" stroke="#85956b" stroke-width="1.5"/>
	<line x1="363" y1="398" x2="471" y2="398" stroke="#85956b" stroke-width="1"/>
	<text x="383" y="390.6" fill="#27360c" font-family="Courier New" font-size="14">ANALYSER</text>
	<text x="370" y="416.6" fill="#607734" font-family="Courier New" font-size="14">url_analyse</text>
</g>

<!-- Association AVOIR_TYPE_UTILISATEUR -->
<line x1="215" y1="241" x2="215" y2="129" stroke="#726f83" stroke-width="1"/>
<text x="220.0" y="171" fill="#726f83" font-family="Courier New" font-size="12">1,1</text>
<line x1="215" y1="44" x2="215" y2="129" stroke="#726f83" stroke-width="1"/>
<text x="220.0" y="95" fill="#726f83" font-family="Courier New" font-size="12">1,N</text>
<path d="M 215.0 79.0 L 221.0 91.0 L 215.0 87.0 L 209.0 91.0 Z" fill="#726f83" stroke-width="0"/>
<g id="association-AVOIR_TYPE_UTILISATEUR">
	<path d="M 301 103 a 14 14 90 0 1 14 14 V 129 h -200 V 117 a 14 14 90 0 1 14 -14" fill="#b2bba4" stroke="#b2bba4" stroke-width="0"/>
	<path d="M 315 129.0 v 12 a 14 14 90 0 1 -14 14 H 129 a 14 14 90 0 1 -14 -14 V 129.0 H 200" fill="#ccd6ba" stroke="#ccd6ba" stroke-width="0"/>
	<rect x="115" y="103" width="200" height="52" fill="none" rx="14" stroke="#85956b" stroke-width="1.5"/>
	<line x1="115" y1="129" x2="315" y2="129" stroke="#85956b" stroke-width="1"/>
	<text x="122" y="121.6" fill="#27360c" font-family="Courier New" font-size="14">AVOIR_TYPE_UTILISATEUR</text>
</g>

<!-- Entity DATE -->
<g id="entity-DATE">
	<g id="frame-DATE">
		<rect x="117" y="493" width="196" height="26" fill="#97b8ff" stroke="#97b8ff" stroke-width="0"/>
		<rect x="117" y="519.0" width="196" height="26" fill="#c0d4ff" stroke="#c0d4ff" stroke-width="0"/>
		<rect x="117" y="493" width="196" height="52" fill="none" stroke="#578dff" stroke-width="1.5"/>
		<line x1="117" y1="519" x2="313" y2="519" stroke="#578dff" stroke-width="1"/>
	</g>
	<text x="197" y="511.6" fill="#131114" font-family="Courier New" font-size="14">DATE</text>
	<text x="122" y="537.6" fill="#3e3c42" font-family="Courier New" font-size="14">aaaa-mm-jj_hh:mm:ss'ms</text>
	<line x1="122" y1="540.0" x2="308" y2="540.0" stroke="#3e3c42" stroke-width="1"/>
</g>

<!-- Entity UTILISATEUR -->
<g id="entity-UTILISATEUR">
	<g id="frame-UTILISATEUR">
		<rect x="125" y="179" width="180" height="26" fill="#97b8ff" stroke="#97b8ff" stroke-width="0"/>
		<rect x="125" y="205.0" width="180" height="98" fill="#c0d4ff" stroke="#c0d4ff" stroke-width="0"/>
		<rect x="125" y="179" width="180" height="124" fill="none" stroke="#578dff" stroke-width="1.5"/>
		<line x1="125" y1="205" x2="305" y2="205" stroke="#578dff" stroke-width="1"/>
	</g>
	<text x="168" y="197.6" fill="#131114" font-family="Courier New" font-size="14">UTILISATEUR</text>
	<text x="130" y="223.6" fill="#3e3c42" font-family="Courier New" font-size="14">id_utilisateur</text>
	<line x1="130" y1="226.0" x2="249" y2="226.0" stroke="#3e3c42" stroke-width="1"/>
	<text x="130" y="241.6" fill="#3e3c42" font-family="Courier New" font-size="14">nom_utilisateur</text>
	<text x="130" y="259.6" fill="#3e3c42" font-family="Courier New" font-size="14">prenom_utilisateur</text>
	<text x="130" y="277.6" fill="#3e3c42" font-family="Courier New" font-size="14">login_utilisateur</text>
	<text x="130" y="295.6" fill="#3e3c42" font-family="Courier New" font-size="14">password_utilisateur</text>
</g>

<!-- Entity QUESTIONNAIRE -->
<g id="entity-QUESTIONNAIRE">
	<g id="frame-QUESTIONNAIRE">
		<rect x="100" y="327" width="230" height="26" fill="#97b8ff" stroke="#97b8ff" stroke-width="0"/>
		<rect x="100" y="353.0" width="230" height="116" fill="#c0d4ff" stroke="#c0d4ff" stroke-width="0"/>
		<rect x="100" y="327" width="230" height="142" fill="none" stroke="#578dff" stroke-width="1.5"/>
		<line x1="100" y1="353" x2="330" y2="353" stroke="#578dff" stroke-width="1"/>
	</g>
	<text x="160" y="345.6" fill="#131114" font-family="Courier New" font-size="14">QUESTIONNAIRE</text>
	<text x="105" y="371.6" fill="#3e3c42" font-family="Courier New" font-size="14">id_questionnaire</text>
	<line x1="105" y1="374.0" x2="241" y2="374.0" stroke="#3e3c42" stroke-width="1"/>
	<text x="105" y="389.6" fill="#3e3c42" font-family="Courier New" font-size="14">intitule_questionnaire</text>
	<text x="105" y="407.6" fill="#3e3c42" font-family="Courier New" font-size="14">dateheurelim_questionnaire</text>
	<text x="105" y="425.6" fill="#3e3c42" font-family="Courier New" font-size="14">accessible_questionnaire</text>
	<text x="105" y="443.6" fill="#3e3c42" font-family="Courier New" font-size="14">termine_questionnaire</text>
	<text x="105" y="461.6" fill="#3e3c42" font-family="Courier New" font-size="14">analyse_questionnaire</text>
</g>

<!-- Entity TYPE_UTILISATEUR -->
<g id="entity-TYPE_UTILISATEUR">
	<g id="frame-TYPE_UTILISATEUR">
		<rect x="142" y="9" width="146" height="26" fill="#97b8ff" stroke="#97b8ff" stroke-width="0"/>
		<rect x="142" y="35.0" width="146" height="44" fill="#c0d4ff" stroke="#c0d4ff" stroke-width="0"/>
		<rect x="142" y="9" width="146" height="70" fill="none" stroke="#578dff" stroke-width="1.5"/>
		<line x1="142" y1="35" x2="288" y2="35" stroke="#578dff" stroke-width="1"/>
	</g>
	<text x="147" y="27.6" fill="#131114" font-family="Courier New" font-size="14">TYPE_UTILISATEUR</text>
	<text x="147" y="53.6" fill="#3e3c42" font-family="Courier New" font-size="14">id_typeutil</text>
	<line x1="147" y1="56.0" x2="241" y2="56.0" stroke="#3e3c42" stroke-width="1"/>
	<text x="147" y="71.6" fill="#3e3c42" font-family="Courier New" font-size="14">libelle_typeutil</text>
</g>
</svg>