<?xml version="1.0" standalone="no"?>
<!DOCTYPE svg PUBLIC "-//W3C//DTD SVG 1.1//EN"
"http://www.w3.org/Graphics/SVG/1.1/DTD/svg11.dtd">

<svg width="744" height="514" view_box="0 0 744 514"
xmlns="http://www.w3.org/2000/svg"
xmlns:link="http://www.w3.org/1999/xlink">\n\n<desc>Généré par Mocodo 2.3.7 le Mon, 03 Apr 2017 17:49:23</desc>

<rect id="frame" x="0" y="0" width="744" height="514" fill="none" stroke="none" stroke-width="0"/>

<!-- Association CREER -->
<line x1="454" y1="201" x2="454" y2="313" stroke="#726f83" stroke-width="1"/>
<text x="459.0" y="279" fill="#726f83" font-family="Courier New" font-size="12">1,N</text>
<path d="M 454.0 263.0 L 460.0 275.0 L 454.0 271.0 L 448.0 275.0 Z" fill="#726f83" stroke-width="0"/>
<line x1="454" y1="434" x2="454" y2="313" stroke="#726f83" stroke-width="1"/>
<text x="459.0" y="355" fill="#726f83" font-family="Courier New" font-size="12">0,1</text>
<line x1="248" y1="313" x2="454" y2="313" stroke="#726f83" stroke-width="1"/>
<text x="351" y="329.0" fill="#726f83" font-family="Courier New" font-size="12">0,N</text>
<g id="association-CREER">
	<path d="M 469 287 a 14 14 90 0 1 14 14 V 313 h -58 V 301 a 14 14 90 0 1 14 -14" fill="#b2bba4" stroke="#b2bba4" stroke-width="0"/>
	<path d="M 483 313.0 v 12 a 14 14 90 0 1 -14 14 H 439 a 14 14 90 0 1 -14 -14 V 313.0 H 58" fill="#ccd6ba" stroke="#ccd6ba" stroke-width="0"/>
	<rect x="425" y="287" width="58" height="52" fill="none" rx="14" stroke="#85956b" stroke-width="1.5"/>
	<line x1="425" y1="313" x2="483" y2="313" stroke="#85956b" stroke-width="1"/>
	<text x="432" y="305.6" fill="#27360c" font-family="Courier New" font-size="14">CREER</text>
</g>

<!-- Association AVOIR_TYPE_UTILISATEUR -->
<line x1="454" y1="201" x2="454" y2="80" stroke="#726f83" stroke-width="1"/>
<text x="459.0" y="131" fill="#726f83" font-family="Courier New" font-size="12">1,1</text>
<line x1="248" y1="80" x2="454" y2="80" stroke="#726f83" stroke-width="1"/>
<text x="326" y="96.0" fill="#726f83" font-family="Courier New" font-size="12">1,N</text>
<path d="M 321.0 80.0 L 333.0 74.0 L 329.0 80.0 L 333.0 86.0 Z" fill="#726f83" stroke-width="0"/>
<g id="association-AVOIR_TYPE_UTILISATEUR">
	<path d="M 540 54 a 14 14 90 0 1 14 14 V 80 h -200 V 68 a 14 14 90 0 1 14 -14" fill="#b2bba4" stroke="#b2bba4" stroke-width="0"/>
	<path d="M 554 80.0 v 12 a 14 14 90 0 1 -14 14 H 368 a 14 14 90 0 1 -14 -14 V 80.0 H 200" fill="#ccd6ba" stroke="#ccd6ba" stroke-width="0"/>
	<rect x="354" y="54" width="200" height="52" fill="none" rx="14" stroke="#85956b" stroke-width="1.5"/>
	<line x1="354" y1="80" x2="554" y2="80" stroke="#85956b" stroke-width="1"/>
	<text x="361" y="72.6" fill="#27360c" font-family="Courier New" font-size="14">AVOIR_TYPE_UTILISATEUR</text>
</g>

<!-- Association ANALYSER -->
<line x1="454" y1="201" x2="63" y2="313" stroke="#726f83" stroke-width="1"/>
<text x="336" y="221.00057393565726" fill="#726f83" font-family="Courier New" font-size="12">1,N</text>
<path d="M 364.0 226.78005115089513 L 354.11616512026444 235.8525264509509 L 356.3092946507928 228.9830153429954 L 350.811718832114 224.31646842714014 Z" fill="#726f83" stroke-width="0"/>
<line x1="454" y1="434" x2="63" y2="313" stroke="#726f83" stroke-width="1"/>
<text x="311" y="412.005303149677" fill="#726f83" font-family="Courier New" font-size="12">0,N</text>
<line x1="248" y1="313" x2="63" y2="313" stroke="#726f83" stroke-width="1"/>
<text x="122" y="329.0" fill="#726f83" font-family="Courier New" font-size="12">0,N</text>
<g id="association-ANALYSER">
	<path d="M 103 287 a 14 14 90 0 1 14 14 V 313 h -108 V 301 a 14 14 90 0 1 14 -14" fill="#b2bba4" stroke="#b2bba4" stroke-width="0"/>
	<path d="M 117 313.0 v 12 a 14 14 90 0 1 -14 14 H 23 a 14 14 90 0 1 -14 -14 V 313.0 H 108" fill="#ccd6ba" stroke="#ccd6ba" stroke-width="0"/>
	<rect x="9" y="287" width="108" height="52" fill="none" rx="14" stroke="#85956b" stroke-width="1.5"/>
	<line x1="9" y1="313" x2="117" y2="313" stroke="#85956b" stroke-width="1"/>
	<text x="29" y="305.6" fill="#27360c" font-family="Courier New" font-size="14">ANALYSER</text>
	<text x="16" y="331.6" fill="#607734" font-family="Courier New" font-size="14">url_analyse</text>
</g>

<!-- Association SONDER -->
<line x1="454" y1="201" x2="656" y2="201" stroke="#726f83" stroke-width="1"/>
<text x="549" y="217.0" fill="#726f83" font-family="Courier New" font-size="12">0,N</text>
<path d="M 544.0 201.0 L 556.0 195.0 L 552.0 201.0 L 556.0 207.0 Z" fill="#726f83" stroke-width="0"/>
<line x1="656" y1="80" x2="656" y2="201" stroke="#726f83" stroke-width="1"/>
<text x="661.0" y="167" fill="#726f83" font-family="Courier New" font-size="12">0,N</text>
<line x1="454" y1="434" x2="656" y2="201" stroke="#726f83" stroke-width="1"/>
<text x="493.9138139634814" y="355" fill="#726f83" font-family="Courier New" font-size="12">0,N</text>
<g id="association-SONDER">
	<path d="M 721 175 a 14 14 90 0 1 14 14 V 201 h -158 V 189 a 14 14 90 0 1 14 -14" fill="#b2bba4" stroke="#b2bba4" stroke-width="0"/>
	<path d="M 735 201.0 v 12 a 14 14 90 0 1 -14 14 H 591 a 14 14 90 0 1 -14 -14 V 201.0 H 158" fill="#ccd6ba" stroke="#ccd6ba" stroke-width="0"/>
	<rect x="577" y="175" width="158" height="52" fill="none" rx="14" stroke="#85956b" stroke-width="1.5"/>
	<line x1="577" y1="201" x2="735" y2="201" stroke="#85956b" stroke-width="1"/>
	<text x="630" y="193.6" fill="#27360c" font-family="Courier New" font-size="14">SONDER</text>
	<text x="584" y="219.6" fill="#607734" font-family="Courier New" font-size="14">dateheure_sondage</text>
</g>

<!-- Entity TYPE_UTILISATEUR -->
<g id="entity-TYPE_UTILISATEUR">
	<g id="frame-TYPE_UTILISATEUR">
		<rect x="175" y="45" width="146" height="26" fill="#97b8ff" stroke="#97b8ff" stroke-width="0"/>
		<rect x="175" y="71.0" width="146" height="44" fill="#c0d4ff" stroke="#c0d4ff" stroke-width="0"/>
		<rect x="175" y="45" width="146" height="70" fill="none" stroke="#578dff" stroke-width="1.5"/>
		<line x1="175" y1="71" x2="321" y2="71" stroke="#578dff" stroke-width="1"/>
	</g>
	<text x="180" y="63.6" fill="#131114" font-family="Courier New" font-size="14">TYPE_UTILISATEUR</text>
	<text x="180" y="89.6" fill="#3e3c42" font-family="Courier New" font-size="14">id_typeutil</text>
	<line x1="180" y1="92.0" x2="274" y2="92.0" stroke="#3e3c42" stroke-width="1"/>
	<text x="180" y="107.6" fill="#3e3c42" font-family="Courier New" font-size="14">libelle_typeutil</text>
</g>

<!-- Entity DATE -->
<g id="entity-DATE">
	<g id="frame-DATE">
		<rect x="150" y="287" width="196" height="26" fill="#97b8ff" stroke="#97b8ff" stroke-width="0"/>
		<rect x="150" y="313.0" width="196" height="26" fill="#c0d4ff" stroke="#c0d4ff" stroke-width="0"/>
		<rect x="150" y="287" width="196" height="52" fill="none" stroke="#578dff" stroke-width="1.5"/>
		<line x1="150" y1="313" x2="346" y2="313" stroke="#578dff" stroke-width="1"/>
	</g>
	<text x="230" y="305.6" fill="#131114" font-family="Courier New" font-size="14">DATE</text>
	<text x="155" y="331.6" fill="#3e3c42" font-family="Courier New" font-size="14">aaaa-mm-jj_hh:mm:ss'ms</text>
	<line x1="155" y1="334.0" x2="341" y2="334.0" stroke="#3e3c42" stroke-width="1"/>
</g>

<!-- Entity QUESTIONNAIRE -->
<g id="entity-QUESTIONNAIRE">
	<g id="frame-QUESTIONNAIRE">
		<rect x="339" y="363" width="230" height="26" fill="#97b8ff" stroke="#97b8ff" stroke-width="0"/>
		<rect x="339" y="389.0" width="230" height="116" fill="#c0d4ff" stroke="#c0d4ff" stroke-width="0"/>
		<rect x="339" y="363" width="230" height="142" fill="none" stroke="#578dff" stroke-width="1.5"/>
		<line x1="339" y1="389" x2="569" y2="389" stroke="#578dff" stroke-width="1"/>
	</g>
	<text x="399" y="381.6" fill="#131114" font-family="Courier New" font-size="14">QUESTIONNAIRE</text>
	<text x="344" y="407.6" fill="#3e3c42" font-family="Courier New" font-size="14">id_questionnaire</text>
	<line x1="344" y1="410.0" x2="480" y2="410.0" stroke="#3e3c42" stroke-width="1"/>
	<text x="344" y="425.6" fill="#3e3c42" font-family="Courier New" font-size="14">intitule_questionnaire</text>
	<text x="344" y="443.6" fill="#3e3c42" font-family="Courier New" font-size="14">dateheurelim_questionnaire</text>
	<text x="344" y="461.6" fill="#3e3c42" font-family="Courier New" font-size="14">accessible_questionnaire</text>
	<text x="344" y="479.6" fill="#3e3c42" font-family="Courier New" font-size="14">termine_questionnaire</text>
	<text x="344" y="497.6" fill="#3e3c42" font-family="Courier New" font-size="14">analyse_questionnaire</text>
</g>

<!-- Entity SONDE -->
<g id="entity-SONDE">
	<g id="frame-SONDE">
		<rect x="587" y="9" width="138" height="26" fill="#97b8ff" stroke="#97b8ff" stroke-width="0"/>
		<rect x="587" y="35.0" width="138" height="116" fill="#c0d4ff" stroke="#c0d4ff" stroke-width="0"/>
		<rect x="587" y="9" width="138" height="142" fill="none" stroke="#578dff" stroke-width="1.5"/>
		<line x1="587" y1="35" x2="725" y2="35" stroke="#578dff" stroke-width="1"/>
	</g>
	<text x="634" y="27.6" fill="#131114" font-family="Courier New" font-size="14">SONDE</text>
	<text x="592" y="53.6" fill="#3e3c42" font-family="Courier New" font-size="14">id_sonde</text>
	<line x1="592" y1="56.0" x2="660" y2="56.0" stroke="#3e3c42" stroke-width="1"/>
	<text x="592" y="71.6" fill="#3e3c42" font-family="Courier New" font-size="14">nom_sonde</text>
	<text x="592" y="89.6" fill="#3e3c42" font-family="Courier New" font-size="14">prenom_sonde</text>
	<text x="592" y="107.6" fill="#3e3c42" font-family="Courier New" font-size="14">sexe_sonde</text>
	<text x="592" y="125.6" fill="#3e3c42" font-family="Courier New" font-size="14">datenaiss_sonde</text>
	<text x="592" y="143.6" fill="#3e3c42" font-family="Courier New" font-size="14">tel_sonde</text>
</g>

<!-- Entity UTILISATEUR -->
<g id="entity-UTILISATEUR">
	<g id="frame-UTILISATEUR">
		<rect x="364" y="139" width="180" height="26" fill="#97b8ff" stroke="#97b8ff" stroke-width="0"/>
		<rect x="364" y="165.0" width="180" height="98" fill="#c0d4ff" stroke="#c0d4ff" stroke-width="0"/>
		<rect x="364" y="139" width="180" height="124" fill="none" stroke="#578dff" stroke-width="1.5"/>
		<line x1="364" y1="165" x2="544" y2="165" stroke="#578dff" stroke-width="1"/>
	</g>
	<text x="407" y="157.6" fill="#131114" font-family="Courier New" font-size="14">UTILISATEUR</text>
	<text x="369" y="183.6" fill="#3e3c42" font-family="Courier New" font-size="14">id_utilisateur</text>
	<line x1="369" y1="186.0" x2="488" y2="186.0" stroke="#3e3c42" stroke-width="1"/>
	<text x="369" y="201.6" fill="#3e3c42" font-family="Courier New" font-size="14">nom_utilisateur</text>
	<text x="369" y="219.6" fill="#3e3c42" font-family="Courier New" font-size="14">prenom_utilisateur</text>
	<text x="369" y="237.6" fill="#3e3c42" font-family="Courier New" font-size="14">login_utilisateur</text>
	<text x="369" y="255.6" fill="#3e3c42" font-family="Courier New" font-size="14">password_utilisateur</text>
</g>
</svg>