<?xml version="1.0" standalone="no"?>
<!DOCTYPE svg PUBLIC "-//W3C//DTD SVG 1.1//EN"
"http://www.w3.org/Graphics/SVG/1.1/DTD/svg11.dtd">

<svg width="843" height="392" view_box="0 0 843 392"
xmlns="http://www.w3.org/2000/svg"
xmlns:link="http://www.w3.org/1999/xlink">\n\n<desc>Généré par Mocodo 2.3.7 le Wed, 05 Apr 2017 08:20:37</desc>

<rect id="frame" x="0" y="0" width="843" height="392" fill="none" stroke="none" stroke-width="0"/>

<!-- Association ENREGISTRER_NOTE -->
<line x1="326" y1="196" x2="107" y2="196" stroke="#726f83" stroke-width="1"/>
<text x="229" y="212.0" fill="#726f83" font-family="Courier New" font-size="12">0,N</text>
<line x1="107" y1="111" x2="107" y2="196" stroke="#726f83" stroke-width="1"/>
<text x="112.0" y="153" fill="#726f83" font-family="Courier New" font-size="12">0,N</text>
<g id="association-ENREGISTRER_NOTE">
	<path d="M 168 170 a 14 14 90 0 1 14 14 V 196 h -150 V 184 a 14 14 90 0 1 14 -14" fill="#b2bba4" stroke="#b2bba4" stroke-width="0"/>
	<path d="M 182 196.0 v 12 a 14 14 90 0 1 -14 14 H 46 a 14 14 90 0 1 -14 -14 V 196.0 H 150" fill="#ccd6ba" stroke="#ccd6ba" stroke-width="0"/>
	<rect x="32" y="170" width="150" height="52" fill="none" rx="14" stroke="#85956b" stroke-width="1.5"/>
	<line x1="32" y1="196" x2="182" y2="196" stroke="#85956b" stroke-width="1"/>
	<text x="39" y="188.6" fill="#27360c" font-family="Courier New" font-size="14">ENREGISTRER_NOTE</text>
	<text x="39" y="214.6" fill="#607734" font-family="Courier New" font-size="14">note_reponse</text>
</g>

<!-- Association ENREGISTRER_SELECTION -->
<line x1="326" y1="196" x2="547" y2="196" stroke="#726f83" stroke-width="1"/>
<text x="400" y="188.0" fill="#726f83" font-family="Courier New" font-size="12">0,N</text>
<line x1="547" y1="111" x2="547" y2="196" stroke="#726f83" stroke-width="1"/>
<text x="552.0" y="153" fill="#726f83" font-family="Courier New" font-size="12">0,N</text>
<line x1="757" y1="281" x2="547" y2="196" stroke="#726f83" stroke-width="1"/>
<text x="652" y="262.663786259703" fill="#726f83" font-family="Courier New" font-size="12">0,N</text>
<g id="association-ENREGISTRER_SELECTION">
	<path d="M 629 170 a 14 14 90 0 1 14 14 V 196 h -192 V 184 a 14 14 90 0 1 14 -14" fill="#b2bba4" stroke="#b2bba4" stroke-width="0"/>
	<path d="M 643 196.0 v 12 a 14 14 90 0 1 -14 14 H 465 a 14 14 90 0 1 -14 -14 V 196.0 H 192" fill="#ccd6ba" stroke="#ccd6ba" stroke-width="0"/>
	<rect x="451" y="170" width="192" height="52" fill="none" rx="14" stroke="#85956b" stroke-width="1.5"/>
	<line x1="451" y1="196" x2="643" y2="196" stroke="#85956b" stroke-width="1"/>
	<text x="458" y="188.6" fill="#27360c" font-family="Courier New" font-size="14">ENREGISTRER_SELECTION</text>
</g>

<!-- Association ENREGISTRER_CHOIX -->
<line x1="326" y1="196" x2="326" y2="111" stroke="#726f83" stroke-width="1"/>
<text x="331.0" y="153" fill="#726f83" font-family="Courier New" font-size="12">0,N</text>
<line x1="326" y1="35" x2="326" y2="111" stroke="#726f83" stroke-width="1"/>
<text x="331.0" y="77" fill="#726f83" font-family="Courier New" font-size="12">0,N</text>
<g id="association-ENREGISTRER_CHOIX">
	<path d="M 391 85 a 14 14 90 0 1 14 14 V 111 h -158 V 99 a 14 14 90 0 1 14 -14" fill="#b2bba4" stroke="#b2bba4" stroke-width="0"/>
	<path d="M 405 111.0 v 12 a 14 14 90 0 1 -14 14 H 261 a 14 14 90 0 1 -14 -14 V 111.0 H 158" fill="#ccd6ba" stroke="#ccd6ba" stroke-width="0"/>
	<rect x="247" y="85" width="158" height="52" fill="none" rx="14" stroke="#85956b" stroke-width="1.5"/>
	<line x1="247" y1="111" x2="405" y2="111" stroke="#85956b" stroke-width="1"/>
	<text x="254" y="103.6" fill="#27360c" font-family="Courier New" font-size="14">ENREGISTRER_CHOIX</text>
	<text x="254" y="129.6" fill="#607734" font-family="Courier New" font-size="14">id_choixmul</text>
</g>

<!-- Association ENREGISTRER_REPONSE -->
<line x1="326" y1="196" x2="326" y2="281" stroke="#726f83" stroke-width="1"/>
<text x="298.0" y="247" fill="#726f83" font-family="Courier New" font-size="12">0,N</text>
<line x1="107" y1="281" x2="326" y2="281" stroke="#726f83" stroke-width="1"/>
<text x="210" y="297.0" fill="#726f83" font-family="Courier New" font-size="12">0,N</text>
<g id="association-ENREGISTRER_REPONSE">
	<path d="M 400 255 a 14 14 90 0 1 14 14 V 281 h -176 V 269 a 14 14 90 0 1 14 -14" fill="#b2bba4" stroke="#b2bba4" stroke-width="0"/>
	<path d="M 414 281.0 v 12 a 14 14 90 0 1 -14 14 H 252 a 14 14 90 0 1 -14 -14 V 281.0 H 176" fill="#ccd6ba" stroke="#ccd6ba" stroke-width="0"/>
	<rect x="238" y="255" width="176" height="52" fill="none" rx="14" stroke="#85956b" stroke-width="1.5"/>
	<line x1="238" y1="281" x2="414" y2="281" stroke="#85956b" stroke-width="1"/>
	<text x="245" y="273.6" fill="#27360c" font-family="Courier New" font-size="14">ENREGISTRER_REPONSE</text>
	<text x="245" y="299.6" fill="#607734" font-family="Courier New" font-size="14">commentaire_reponse</text>
</g>

<!-- Association ENREGISTRER_CLASSEMENT -->
<line x1="326" y1="196" x2="547" y2="281" stroke="#726f83" stroke-width="1"/>
<text x="400" y="217.54811582679272" fill="#726f83" font-family="Courier New" font-size="12">0,N</text>
<line x1="547" y1="357" x2="547" y2="281" stroke="#726f83" stroke-width="1"/>
<text x="552.0" y="323" fill="#726f83" font-family="Courier New" font-size="12">0,N</text>
<line x1="757" y1="281" x2="547" y2="281" stroke="#726f83" stroke-width="1"/>
<text x="652" y="297.0" fill="#726f83" font-family="Courier New" font-size="12">0,N</text>
<g id="association-ENREGISTRER_CLASSEMENT">
	<path d="M 633 255 a 14 14 90 0 1 14 14 V 281 h -200 V 269 a 14 14 90 0 1 14 -14" fill="#b2bba4" stroke="#b2bba4" stroke-width="0"/>
	<path d="M 647 281.0 v 12 a 14 14 90 0 1 -14 14 H 461 a 14 14 90 0 1 -14 -14 V 281.0 H 200" fill="#ccd6ba" stroke="#ccd6ba" stroke-width="0"/>
	<rect x="447" y="255" width="200" height="52" fill="none" rx="14" stroke="#85956b" stroke-width="1.5"/>
	<line x1="447" y1="281" x2="647" y2="281" stroke="#85956b" stroke-width="1"/>
	<text x="454" y="273.6" fill="#27360c" font-family="Courier New" font-size="14">ENREGISTRER_CLASSEMENT</text>
	<text x="454" y="299.6" fill="#607734" font-family="Courier New" font-size="14">position</text>
</g>

<!-- Entity DATE2 -->
<g id="entity-DATE2">
	<g id="frame-DATE2">
		<rect x="9" y="85" width="196" height="26" fill="#97b8ff" stroke="#97b8ff" stroke-width="0"/>
		<rect x="9" y="111.0" width="196" height="26" fill="#c0d4ff" stroke="#c0d4ff" stroke-width="0"/>
		<rect x="9" y="85" width="196" height="52" fill="none" stroke="#578dff" stroke-width="1.5"/>
		<line x1="9" y1="111" x2="205" y2="111" stroke="#578dff" stroke-width="1"/>
	</g>
	<text x="89" y="103.6" fill="#131114" font-family="Courier New" font-size="14">DATE</text>
	<text x="14" y="129.6" fill="#3e3c42" font-family="Courier New" font-size="14">aaaa-mm-jj_hh:mm:ss'ms</text>
	<line x1="14" y1="132.0" x2="200" y2="132.0" stroke="#3e3c42" stroke-width="1"/>
</g>

<!-- Entity CHOIX_MULTIPLE -->
<g id="entity-CHOIX_MULTIPLE">
	<g id="frame-CHOIX_MULTIPLE">
		<rect x="680" y="246" width="154" height="26" fill="#97b8ff" stroke="#97b8ff" stroke-width="0"/>
		<rect x="680" y="272.0" width="154" height="44" fill="#c0d4ff" stroke="#c0d4ff" stroke-width="0"/>
		<rect x="680" y="246" width="154" height="70" fill="none" stroke="#578dff" stroke-width="1.5"/>
		<line x1="680" y1="272" x2="834" y2="272" stroke="#578dff" stroke-width="1"/>
	</g>
	<text x="697" y="264.6" fill="#131114" font-family="Courier New" font-size="14">CHOIX_MULTIPLE</text>
	<text x="685" y="290.6" fill="#3e3c42" font-family="Courier New" font-size="14">id_choixmul</text>
	<line x1="685" y1="293.0" x2="779" y2="293.0" stroke="#3e3c42" stroke-width="1"/>
	<text x="685" y="308.6" fill="#3e3c42" font-family="Courier New" font-size="14">intitule_choixmul</text>
</g>

<!-- Entity DATE3 -->
<g id="entity-DATE3">
	<g id="frame-DATE3">
		<rect x="449" y="85" width="196" height="26" fill="#97b8ff" stroke="#97b8ff" stroke-width="0"/>
		<rect x="449" y="111.0" width="196" height="26" fill="#c0d4ff" stroke="#c0d4ff" stroke-width="0"/>
		<rect x="449" y="85" width="196" height="52" fill="none" stroke="#578dff" stroke-width="1.5"/>
		<line x1="449" y1="111" x2="645" y2="111" stroke="#578dff" stroke-width="1"/>
	</g>
	<text x="529" y="103.6" fill="#131114" font-family="Courier New" font-size="14">DATE</text>
	<text x="454" y="129.6" fill="#3e3c42" font-family="Courier New" font-size="14">aaaa-mm-jj_hh:mm:ss'ms</text>
	<line x1="454" y1="132.0" x2="640" y2="132.0" stroke="#3e3c42" stroke-width="1"/>
</g>

<!-- Entity DATE5 -->
<g id="entity-DATE5">
	<g id="frame-DATE5">
		<rect x="228" y="9" width="196" height="26" fill="#97b8ff" stroke="#97b8ff" stroke-width="0"/>
		<rect x="228" y="35.0" width="196" height="26" fill="#c0d4ff" stroke="#c0d4ff" stroke-width="0"/>
		<rect x="228" y="9" width="196" height="52" fill="none" stroke="#578dff" stroke-width="1.5"/>
		<line x1="228" y1="35" x2="424" y2="35" stroke="#578dff" stroke-width="1"/>
	</g>
	<text x="308" y="27.6" fill="#131114" font-family="Courier New" font-size="14">DATE</text>
	<text x="233" y="53.6" fill="#3e3c42" font-family="Courier New" font-size="14">aaaa-mm-jj_hh:mm:ss'ms</text>
	<line x1="233" y1="56.0" x2="419" y2="56.0" stroke="#3e3c42" stroke-width="1"/>
</g>

<!-- Entity DATE4 -->
<g id="entity-DATE4">
	<g id="frame-DATE4">
		<rect x="449" y="331" width="196" height="26" fill="#97b8ff" stroke="#97b8ff" stroke-width="0"/>
		<rect x="449" y="357.0" width="196" height="26" fill="#c0d4ff" stroke="#c0d4ff" stroke-width="0"/>
		<rect x="449" y="331" width="196" height="52" fill="none" stroke="#578dff" stroke-width="1.5"/>
		<line x1="449" y1="357" x2="645" y2="357" stroke="#578dff" stroke-width="1"/>
	</g>
	<text x="529" y="349.6" fill="#131114" font-family="Courier New" font-size="14">DATE</text>
	<text x="454" y="375.6" fill="#3e3c42" font-family="Courier New" font-size="14">aaaa-mm-jj_hh:mm:ss'ms</text>
	<line x1="454" y1="378.0" x2="640" y2="378.0" stroke="#3e3c42" stroke-width="1"/>
</g>

<!-- Entity DATE -->
<g id="entity-DATE">
	<g id="frame-DATE">
		<rect x="9" y="255" width="196" height="26" fill="#97b8ff" stroke="#97b8ff" stroke-width="0"/>
		<rect x="9" y="281.0" width="196" height="26" fill="#c0d4ff" stroke="#c0d4ff" stroke-width="0"/>
		<rect x="9" y="255" width="196" height="52" fill="none" stroke="#578dff" stroke-width="1.5"/>
		<line x1="9" y1="281" x2="205" y2="281" stroke="#578dff" stroke-width="1"/>
	</g>
	<text x="89" y="273.6" fill="#131114" font-family="Courier New" font-size="14">DATE</text>
	<text x="14" y="299.6" fill="#3e3c42" font-family="Courier New" font-size="14">aaaa-mm-jj_hh:mm:ss'ms</text>
	<line x1="14" y1="302.0" x2="200" y2="302.0" stroke="#3e3c42" stroke-width="1"/>
</g>

<!-- Entity QUESTION -->
<g id="entity-QUESTION">
	<g id="frame-QUESTION">
		<rect x="257" y="161" width="138" height="26" fill="#97b8ff" stroke="#97b8ff" stroke-width="0"/>
		<rect x="257" y="187.0" width="138" height="44" fill="#c0d4ff" stroke="#c0d4ff" stroke-width="0"/>
		<rect x="257" y="161" width="138" height="70" fill="none" stroke="#578dff" stroke-width="1.5"/>
		<line x1="257" y1="187" x2="395" y2="187" stroke="#578dff" stroke-width="1"/>
	</g>
	<text x="292" y="179.6" fill="#131114" font-family="Courier New" font-size="14">QUESTION</text>
	<text x="262" y="205.6" fill="#3e3c42" font-family="Courier New" font-size="14">id_question</text>
	<line x1="262" y1="208.0" x2="356" y2="208.0" stroke="#3e3c42" stroke-width="1"/>
	<text x="262" y="223.6" fill="#3e3c42" font-family="Courier New" font-size="14">enonce_question</text>
</g>
</svg>