<?xml version="1.0" standalone="no"?>
<!DOCTYPE svg PUBLIC "-//W3C//DTD SVG 1.1//EN"
"http://www.w3.org/Graphics/SVG/1.1/DTD/svg11.dtd">

<svg width="1088" height="410" view_box="0 0 1088 410"
xmlns="http://www.w3.org/2000/svg"
xmlns:link="http://www.w3.org/1999/xlink">\n\n<desc>Généré par Mocodo 2.3.7 le Fri, 31 Mar 2017 12:49:30</desc>

<rect id="frame" x="0" y="0" width="1088" height="410" fill="none" stroke="none" stroke-width="0"/>

<!-- Association ENREGISTRER_REPONSE -->
<line x1="548" y1="196" x2="317" y2="196" stroke="#726f83" stroke-width="1"/>
<text x="451" y="188.0" fill="#726f83" font-family="Courier New" font-size="12">0,N</text>
<line x1="317" y1="111" x2="317" y2="196" stroke="#726f83" stroke-width="1"/>
<text x="322.0" y="153" fill="#726f83" font-family="Courier New" font-size="12">0,N</text>
<g id="association-ENREGISTRER_REPONSE">
	<path d="M 391 170 a 14 14 90 0 1 14 14 V 196 h -176 V 184 a 14 14 90 0 1 14 -14" fill="#b2bba4" stroke="#b2bba4" stroke-width="0"/>
	<path d="M 405 196.0 v 12 a 14 14 90 0 1 -14 14 H 243 a 14 14 90 0 1 -14 -14 V 196.0 H 176" fill="#ccd6ba" stroke="#ccd6ba" stroke-width="0"/>
	<rect x="229" y="170" width="176" height="52" fill="none" rx="14" stroke="#85956b" stroke-width="1.5"/>
	<line x1="229" y1="196" x2="405" y2="196" stroke="#85956b" stroke-width="1"/>
	<text x="236" y="188.6" fill="#27360c" font-family="Courier New" font-size="14">ENREGISTRER_REPONSE</text>
	<text x="236" y="214.6" fill="#607734" font-family="Courier New" font-size="14">commentaire</text>
</g>

<!-- Association ENREGISTRER_CHOIX -->
<line x1="548" y1="196" x2="107" y2="281" stroke="#726f83" stroke-width="1"/>
<text x="451" y="202.76537380676953" fill="#726f83" font-family="Courier New" font-size="12">0,N</text>
<line x1="107" y1="366" x2="107" y2="281" stroke="#726f83" stroke-width="1"/>
<text x="112.0" y="332" fill="#726f83" font-family="Courier New" font-size="12">0,N</text>
<line x1="548" y1="366" x2="107" y2="281" stroke="#726f83" stroke-width="1"/>
<text x="443" y="365.69267607985176" fill="#726f83" font-family="Courier New" font-size="12">0,N</text>
<g id="association-ENREGISTRER_CHOIX">
	<path d="M 172 255 a 14 14 90 0 1 14 14 V 281 h -158 V 269 a 14 14 90 0 1 14 -14" fill="#b2bba4" stroke="#b2bba4" stroke-width="0"/>
	<path d="M 186 281.0 v 12 a 14 14 90 0 1 -14 14 H 42 a 14 14 90 0 1 -14 -14 V 281.0 H 158" fill="#ccd6ba" stroke="#ccd6ba" stroke-width="0"/>
	<rect x="28" y="255" width="158" height="52" fill="none" rx="14" stroke="#85956b" stroke-width="1.5"/>
	<line x1="28" y1="281" x2="186" y2="281" stroke="#85956b" stroke-width="1"/>
	<text x="35" y="273.6" fill="#27360c" font-family="Courier New" font-size="14">ENREGISTRER_CHOIX</text>
</g>

<!-- Association ENREGISTRER_SELECTION -->
<line x1="548" y1="196" x2="754" y2="366" stroke="#726f83" stroke-width="1"/>
<text x="568.5296855726257" y="247" fill="#726f83" font-family="Courier New" font-size="12">0,N</text>
<line x1="981" y1="366" x2="754" y2="366" stroke="#726f83" stroke-width="1"/>
<text x="855" y="382.0" fill="#726f83" font-family="Courier New" font-size="12">0,N</text>
<line x1="548" y1="366" x2="754" y2="366" stroke="#726f83" stroke-width="1"/>
<text x="630" y="382.0" fill="#726f83" font-family="Courier New" font-size="12">0,N</text>
<g id="association-ENREGISTRER_SELECTION">
	<path d="M 836 340 a 14 14 90 0 1 14 14 V 366 h -192 V 354 a 14 14 90 0 1 14 -14" fill="#b2bba4" stroke="#b2bba4" stroke-width="0"/>
	<path d="M 850 366.0 v 12 a 14 14 90 0 1 -14 14 H 672 a 14 14 90 0 1 -14 -14 V 366.0 H 192" fill="#ccd6ba" stroke="#ccd6ba" stroke-width="0"/>
	<rect x="658" y="340" width="192" height="52" fill="none" rx="14" stroke="#85956b" stroke-width="1.5"/>
	<line x1="658" y1="366" x2="850" y2="366" stroke="#85956b" stroke-width="1"/>
	<text x="665" y="358.6" fill="#27360c" font-family="Courier New" font-size="14">ENREGISTRER_SELECTION</text>
</g>

<!-- Association ENREGISTRER_CLASSEMENT -->
<line x1="548" y1="196" x2="548" y2="281" stroke="#726f83" stroke-width="1"/>
<text x="553.0" y="247" fill="#726f83" font-family="Courier New" font-size="12">0,N</text>
<line x1="317" y1="281" x2="548" y2="281" stroke="#726f83" stroke-width="1"/>
<text x="420" y="297.0" fill="#726f83" font-family="Courier New" font-size="12">0,N</text>
<line x1="548" y1="366" x2="548" y2="281" stroke="#726f83" stroke-width="1"/>
<text x="553.0" y="323" fill="#726f83" font-family="Courier New" font-size="12">0,N</text>
<g id="association-ENREGISTRER_CLASSEMENT">
	<path d="M 634 255 a 14 14 90 0 1 14 14 V 281 h -200 V 269 a 14 14 90 0 1 14 -14" fill="#b2bba4" stroke="#b2bba4" stroke-width="0"/>
	<path d="M 648 281.0 v 12 a 14 14 90 0 1 -14 14 H 462 a 14 14 90 0 1 -14 -14 V 281.0 H 200" fill="#ccd6ba" stroke="#ccd6ba" stroke-width="0"/>
	<rect x="448" y="255" width="200" height="52" fill="none" rx="14" stroke="#85956b" stroke-width="1.5"/>
	<line x1="448" y1="281" x2="648" y2="281" stroke="#85956b" stroke-width="1"/>
	<text x="455" y="273.6" fill="#27360c" font-family="Courier New" font-size="14">ENREGISTRER_CLASSEMENT</text>
	<text x="455" y="299.6" fill="#607734" font-family="Courier New" font-size="14">position</text>
</g>

<!-- Association ENREGISTRER_NOTE -->
<line x1="548" y1="196" x2="548" y2="111" stroke="#726f83" stroke-width="1"/>
<text x="553.0" y="153" fill="#726f83" font-family="Courier New" font-size="12">0,N</text>
<line x1="548" y1="35" x2="548" y2="111" stroke="#726f83" stroke-width="1"/>
<text x="553.0" y="77" fill="#726f83" font-family="Courier New" font-size="12">0,N</text>
<g id="association-ENREGISTRER_NOTE">
	<path d="M 609 85 a 14 14 90 0 1 14 14 V 111 h -150 V 99 a 14 14 90 0 1 14 -14" fill="#b2bba4" stroke="#b2bba4" stroke-width="0"/>
	<path d="M 623 111.0 v 12 a 14 14 90 0 1 -14 14 H 487 a 14 14 90 0 1 -14 -14 V 111.0 H 150" fill="#ccd6ba" stroke="#ccd6ba" stroke-width="0"/>
	<rect x="473" y="85" width="150" height="52" fill="none" rx="14" stroke="#85956b" stroke-width="1.5"/>
	<line x1="473" y1="111" x2="623" y2="111" stroke="#85956b" stroke-width="1"/>
	<text x="480" y="103.6" fill="#27360c" font-family="Courier New" font-size="14">ENREGISTRER_NOTE</text>
	<text x="480" y="129.6" fill="#607734" font-family="Courier New" font-size="14">note</text>
</g>

<!-- Entity DATE5 -->
<g id="entity-DATE5">
	<g id="frame-DATE5">
		<rect x="9" y="340" width="196" height="26" fill="#97b8ff" stroke="#97b8ff" stroke-width="0"/>
		<rect x="9" y="366.0" width="196" height="26" fill="#c0d4ff" stroke="#c0d4ff" stroke-width="0"/>
		<rect x="9" y="340" width="196" height="52" fill="none" stroke="#578dff" stroke-width="1.5"/>
		<line x1="9" y1="366" x2="205" y2="366" stroke="#578dff" stroke-width="1"/>
	</g>
	<text x="89" y="358.6" fill="#131114" font-family="Courier New" font-size="14">DATE</text>
	<text x="14" y="384.6" fill="#3e3c42" font-family="Courier New" font-size="14">aaaa-mm-jj_hh:mm:ss'ms</text>
	<line x1="14" y1="387.0" x2="200" y2="387.0" stroke="#3e3c42" stroke-width="1"/>
</g>

<!-- Entity DATE2 -->
<g id="entity-DATE2">
	<g id="frame-DATE2">
		<rect x="450" y="9" width="196" height="26" fill="#97b8ff" stroke="#97b8ff" stroke-width="0"/>
		<rect x="450" y="35.0" width="196" height="26" fill="#c0d4ff" stroke="#c0d4ff" stroke-width="0"/>
		<rect x="450" y="9" width="196" height="52" fill="none" stroke="#578dff" stroke-width="1.5"/>
		<line x1="450" y1="35" x2="646" y2="35" stroke="#578dff" stroke-width="1"/>
	</g>
	<text x="530" y="27.6" fill="#131114" font-family="Courier New" font-size="14">DATE</text>
	<text x="455" y="53.6" fill="#3e3c42" font-family="Courier New" font-size="14">aaaa-mm-jj_hh:mm:ss'ms</text>
	<line x1="455" y1="56.0" x2="641" y2="56.0" stroke="#3e3c42" stroke-width="1"/>
</g>

<!-- Entity DATE -->
<g id="entity-DATE">
	<g id="frame-DATE">
		<rect x="219" y="85" width="196" height="26" fill="#97b8ff" stroke="#97b8ff" stroke-width="0"/>
		<rect x="219" y="111.0" width="196" height="26" fill="#c0d4ff" stroke="#c0d4ff" stroke-width="0"/>
		<rect x="219" y="85" width="196" height="52" fill="none" stroke="#578dff" stroke-width="1.5"/>
		<line x1="219" y1="111" x2="415" y2="111" stroke="#578dff" stroke-width="1"/>
	</g>
	<text x="299" y="103.6" fill="#131114" font-family="Courier New" font-size="14">DATE</text>
	<text x="224" y="129.6" fill="#3e3c42" font-family="Courier New" font-size="14">aaaa-mm-jj_hh:mm:ss'ms</text>
	<line x1="224" y1="132.0" x2="410" y2="132.0" stroke="#3e3c42" stroke-width="1"/>
</g>

<!-- Entity DATE4 -->
<g id="entity-DATE4">
	<g id="frame-DATE4">
		<rect x="219" y="255" width="196" height="26" fill="#97b8ff" stroke="#97b8ff" stroke-width="0"/>
		<rect x="219" y="281.0" width="196" height="26" fill="#c0d4ff" stroke="#c0d4ff" stroke-width="0"/>
		<rect x="219" y="255" width="196" height="52" fill="none" stroke="#578dff" stroke-width="1.5"/>
		<line x1="219" y1="281" x2="415" y2="281" stroke="#578dff" stroke-width="1"/>
	</g>
	<text x="299" y="273.6" fill="#131114" font-family="Courier New" font-size="14">DATE</text>
	<text x="224" y="299.6" fill="#3e3c42" font-family="Courier New" font-size="14">aaaa-mm-jj_hh:mm:ss'ms</text>
	<line x1="224" y1="302.0" x2="410" y2="302.0" stroke="#3e3c42" stroke-width="1"/>
</g>

<!-- Entity CHOIX_MULTIPLE -->
<g id="entity-CHOIX_MULTIPLE">
	<g id="frame-CHOIX_MULTIPLE">
		<rect x="471" y="331" width="154" height="26" fill="#97b8ff" stroke="#97b8ff" stroke-width="0"/>
		<rect x="471" y="357.0" width="154" height="44" fill="#c0d4ff" stroke="#c0d4ff" stroke-width="0"/>
		<rect x="471" y="331" width="154" height="70" fill="none" stroke="#578dff" stroke-width="1.5"/>
		<line x1="471" y1="357" x2="625" y2="357" stroke="#578dff" stroke-width="1"/>
	</g>
	<text x="488" y="349.6" fill="#131114" font-family="Courier New" font-size="14">CHOIX_MULTIPLE</text>
	<text x="476" y="375.6" fill="#3e3c42" font-family="Courier New" font-size="14">id_choixmul</text>
	<line x1="476" y1="378.0" x2="570" y2="378.0" stroke="#3e3c42" stroke-width="1"/>
	<text x="476" y="393.6" fill="#3e3c42" font-family="Courier New" font-size="14">intitule_choixmul</text>
</g>

<!-- Entity DATE3 -->
<g id="entity-DATE3">
	<g id="frame-DATE3">
		<rect x="883" y="340" width="196" height="26" fill="#97b8ff" stroke="#97b8ff" stroke-width="0"/>
		<rect x="883" y="366.0" width="196" height="26" fill="#c0d4ff" stroke="#c0d4ff" stroke-width="0"/>
		<rect x="883" y="340" width="196" height="52" fill="none" stroke="#578dff" stroke-width="1.5"/>
		<line x1="883" y1="366" x2="1079" y2="366" stroke="#578dff" stroke-width="1"/>
	</g>
	<text x="963" y="358.6" fill="#131114" font-family="Courier New" font-size="14">DATE</text>
	<text x="888" y="384.6" fill="#3e3c42" font-family="Courier New" font-size="14">aaaa-mm-jj_hh:mm:ss'ms</text>
	<line x1="888" y1="387.0" x2="1074" y2="387.0" stroke="#3e3c42" stroke-width="1"/>
</g>

<!-- Entity QUESTION -->
<g id="entity-QUESTION">
	<g id="frame-QUESTION">
		<rect x="479" y="161" width="138" height="26" fill="#97b8ff" stroke="#97b8ff" stroke-width="0"/>
		<rect x="479" y="187.0" width="138" height="44" fill="#c0d4ff" stroke="#c0d4ff" stroke-width="0"/>
		<rect x="479" y="161" width="138" height="70" fill="none" stroke="#578dff" stroke-width="1.5"/>
		<line x1="479" y1="187" x2="617" y2="187" stroke="#578dff" stroke-width="1"/>
	</g>
	<text x="514" y="179.6" fill="#131114" font-family="Courier New" font-size="14">QUESTION</text>
	<text x="484" y="205.6" fill="#3e3c42" font-family="Courier New" font-size="14">id_question</text>
	<line x1="484" y1="208.0" x2="578" y2="208.0" stroke="#3e3c42" stroke-width="1"/>
	<text x="484" y="223.6" fill="#3e3c42" font-family="Courier New" font-size="14">enonce_question</text>
</g>
</svg>